<mxfile host="app.diagrams.net" modified="2023-06-06T00:51:08.363Z" agent="Mozilla/5.0 (Windows NT 10.0; Win64; x64) AppleWebKit/537.36 (KHTML, like Gecko) Chrome/110.0.0.0 YaBrowser/23.3.4.603 Yowser/2.5 Safari/537.36" etag="KZbKKE2WEV9zWK_AYNpJ" version="21.3.5" type="device">
  <diagram name="Страница 1" id="PXF8gYfuSEdTyaRWxLsL">
    <mxGraphModel dx="7910" dy="2535" grid="0" gridSize="10" guides="1" tooltips="1" connect="1" arrows="1" fold="1" page="0" pageScale="1" pageWidth="827" pageHeight="1169" math="0" shadow="0">
      <root>
        <mxCell id="0" />
        <mxCell id="1" parent="0" />
        <mxCell id="kJwidPcrHj46GqBheQo3-1" value="mark" style="swimlane;fontStyle=0;childLayout=stackLayout;horizontal=1;startSize=26;horizontalStack=0;resizeParent=1;resizeParentMax=0;resizeLast=0;collapsible=1;marginBottom=0;align=center;fontSize=14;" parent="1" vertex="1">
          <mxGeometry x="80" y="439" width="160" height="120" as="geometry" />
        </mxCell>
        <mxCell id="kJwidPcrHj46GqBheQo3-2" value="id" style="text;strokeColor=none;fillColor=none;spacingLeft=4;spacingRight=4;overflow=hidden;rotatable=0;points=[[0,0.5],[1,0.5]];portConstraint=eastwest;fontSize=12;whiteSpace=wrap;html=1;" parent="kJwidPcrHj46GqBheQo3-1" vertex="1">
          <mxGeometry y="26" width="160" height="30" as="geometry" />
        </mxCell>
        <mxCell id="kJwidPcrHj46GqBheQo3-4" value="value&lt;br&gt;&lt;br&gt;student_id&lt;br&gt;task_id" style="text;strokeColor=none;fillColor=none;spacingLeft=4;spacingRight=4;overflow=hidden;rotatable=0;points=[[0,0.5],[1,0.5]];portConstraint=eastwest;fontSize=12;whiteSpace=wrap;html=1;" parent="kJwidPcrHj46GqBheQo3-1" vertex="1">
          <mxGeometry y="56" width="160" height="64" as="geometry" />
        </mxCell>
        <mxCell id="kJwidPcrHj46GqBheQo3-13" value="student" style="swimlane;fontStyle=0;childLayout=stackLayout;horizontal=1;startSize=26;horizontalStack=0;resizeParent=1;resizeParentMax=0;resizeLast=0;collapsible=1;marginBottom=0;align=center;fontSize=14;" parent="1" vertex="1">
          <mxGeometry x="80" y="710" width="160" height="146" as="geometry" />
        </mxCell>
        <mxCell id="kJwidPcrHj46GqBheQo3-14" value="id" style="text;strokeColor=none;fillColor=none;spacingLeft=4;spacingRight=4;overflow=hidden;rotatable=0;points=[[0,0.5],[1,0.5]];portConstraint=eastwest;fontSize=12;whiteSpace=wrap;html=1;" parent="kJwidPcrHj46GqBheQo3-13" vertex="1">
          <mxGeometry y="26" width="160" height="30" as="geometry" />
        </mxCell>
        <mxCell id="kJwidPcrHj46GqBheQo3-16" value="name" style="text;strokeColor=none;fillColor=none;spacingLeft=4;spacingRight=4;overflow=hidden;rotatable=0;points=[[0,0.5],[1,0.5]];portConstraint=eastwest;fontSize=12;whiteSpace=wrap;html=1;" parent="kJwidPcrHj46GqBheQo3-13" vertex="1">
          <mxGeometry y="56" width="160" height="30" as="geometry" />
        </mxCell>
        <mxCell id="kJwidPcrHj46GqBheQo3-23" value="group_id" style="text;strokeColor=none;fillColor=none;spacingLeft=4;spacingRight=4;overflow=hidden;rotatable=0;points=[[0,0.5],[1,0.5]];portConstraint=eastwest;fontSize=12;whiteSpace=wrap;html=1;" parent="kJwidPcrHj46GqBheQo3-13" vertex="1">
          <mxGeometry y="86" width="160" height="30" as="geometry" />
        </mxCell>
        <mxCell id="kJwidPcrHj46GqBheQo3-24" value="discipline_id" style="text;strokeColor=none;fillColor=none;spacingLeft=4;spacingRight=4;overflow=hidden;rotatable=0;points=[[0,0.5],[1,0.5]];portConstraint=eastwest;fontSize=12;whiteSpace=wrap;html=1;" parent="kJwidPcrHj46GqBheQo3-13" vertex="1">
          <mxGeometry y="116" width="160" height="30" as="geometry" />
        </mxCell>
        <mxCell id="kJwidPcrHj46GqBheQo3-19" value="group" style="swimlane;fontStyle=0;childLayout=stackLayout;horizontal=1;startSize=26;horizontalStack=0;resizeParent=1;resizeParentMax=0;resizeLast=0;collapsible=1;marginBottom=0;align=center;fontSize=14;" parent="1" vertex="1">
          <mxGeometry x="320" y="650" width="160" height="160" as="geometry" />
        </mxCell>
        <mxCell id="kJwidPcrHj46GqBheQo3-21" value="id&amp;nbsp;" style="text;strokeColor=none;fillColor=none;spacingLeft=4;spacingRight=4;overflow=hidden;rotatable=0;points=[[0,0.5],[1,0.5]];portConstraint=eastwest;fontSize=12;whiteSpace=wrap;html=1;" parent="kJwidPcrHj46GqBheQo3-19" vertex="1">
          <mxGeometry y="26" width="160" height="30" as="geometry" />
        </mxCell>
        <mxCell id="kJwidPcrHj46GqBheQo3-22" value="name&lt;br&gt;" style="text;strokeColor=none;fillColor=none;spacingLeft=4;spacingRight=4;overflow=hidden;rotatable=0;points=[[0,0.5],[1,0.5]];portConstraint=eastwest;fontSize=12;whiteSpace=wrap;html=1;" parent="kJwidPcrHj46GqBheQo3-19" vertex="1">
          <mxGeometry y="56" width="160" height="30" as="geometry" />
        </mxCell>
        <mxCell id="kJwidPcrHj46GqBheQo3-114" value="description&lt;br&gt;" style="text;strokeColor=none;fillColor=none;spacingLeft=4;spacingRight=4;overflow=hidden;rotatable=0;points=[[0,0.5],[1,0.5]];portConstraint=eastwest;fontSize=12;whiteSpace=wrap;html=1;" parent="kJwidPcrHj46GqBheQo3-19" vertex="1">
          <mxGeometry y="86" width="160" height="30" as="geometry" />
        </mxCell>
        <mxCell id="kJwidPcrHj46GqBheQo3-121" value="Количество участников их список&lt;br&gt;" style="text;strokeColor=none;fillColor=none;spacingLeft=4;spacingRight=4;overflow=hidden;rotatable=0;points=[[0,0.5],[1,0.5]];portConstraint=eastwest;fontSize=12;whiteSpace=wrap;html=1;" parent="kJwidPcrHj46GqBheQo3-19" vertex="1">
          <mxGeometry y="116" width="160" height="44" as="geometry" />
        </mxCell>
        <mxCell id="kJwidPcrHj46GqBheQo3-25" value="discipline" style="swimlane;fontStyle=0;childLayout=stackLayout;horizontal=1;startSize=26;horizontalStack=0;resizeParent=1;resizeParentMax=0;resizeLast=0;collapsible=1;marginBottom=0;align=center;fontSize=14;" parent="1" vertex="1">
          <mxGeometry x="590" y="650" width="160" height="116" as="geometry" />
        </mxCell>
        <mxCell id="kJwidPcrHj46GqBheQo3-27" value="id&amp;nbsp;" style="text;strokeColor=none;fillColor=none;spacingLeft=4;spacingRight=4;overflow=hidden;rotatable=0;points=[[0,0.5],[1,0.5]];portConstraint=eastwest;fontSize=12;whiteSpace=wrap;html=1;" parent="kJwidPcrHj46GqBheQo3-25" vertex="1">
          <mxGeometry y="26" width="160" height="30" as="geometry" />
        </mxCell>
        <mxCell id="kJwidPcrHj46GqBheQo3-115" value="name&lt;br&gt;" style="text;strokeColor=none;fillColor=none;spacingLeft=4;spacingRight=4;overflow=hidden;rotatable=0;points=[[0,0.5],[1,0.5]];portConstraint=eastwest;fontSize=12;whiteSpace=wrap;html=1;" parent="kJwidPcrHj46GqBheQo3-25" vertex="1">
          <mxGeometry y="56" width="160" height="30" as="geometry" />
        </mxCell>
        <mxCell id="kJwidPcrHj46GqBheQo3-28" value="description" style="text;strokeColor=none;fillColor=none;spacingLeft=4;spacingRight=4;overflow=hidden;rotatable=0;points=[[0,0.5],[1,0.5]];portConstraint=eastwest;fontSize=12;whiteSpace=wrap;html=1;" parent="kJwidPcrHj46GqBheQo3-25" vertex="1">
          <mxGeometry y="86" width="160" height="30" as="geometry" />
        </mxCell>
        <mxCell id="kJwidPcrHj46GqBheQo3-30" value="" style="edgeStyle=entityRelationEdgeStyle;fontSize=12;html=1;endArrow=ERoneToMany;rounded=0;exitX=0.995;exitY=0.118;exitDx=0;exitDy=0;exitPerimeter=0;" parent="1" source="kJwidPcrHj46GqBheQo3-13" target="kJwidPcrHj46GqBheQo3-4" edge="1">
          <mxGeometry width="100" height="100" relative="1" as="geometry">
            <mxPoint x="150" y="760" as="sourcePoint" />
            <mxPoint x="40" y="850" as="targetPoint" />
          </mxGeometry>
        </mxCell>
        <mxCell id="kJwidPcrHj46GqBheQo3-31" value="" style="edgeStyle=elbowEdgeStyle;fontSize=12;html=1;endArrow=ERoneToMany;rounded=0;exitX=0;exitY=0.5;exitDx=0;exitDy=0;entryX=1;entryY=0.5;entryDx=0;entryDy=0;" parent="1" source="kJwidPcrHj46GqBheQo3-22" target="kJwidPcrHj46GqBheQo3-23" edge="1">
          <mxGeometry width="100" height="100" relative="1" as="geometry">
            <mxPoint x="430" y="490" as="sourcePoint" />
            <mxPoint x="240" y="749" as="targetPoint" />
            <Array as="points">
              <mxPoint x="290" y="750" />
            </Array>
          </mxGeometry>
        </mxCell>
        <mxCell id="kJwidPcrHj46GqBheQo3-34" value="" style="edgeStyle=elbowEdgeStyle;fontSize=12;html=1;endArrow=ERmany;startArrow=ERmany;rounded=0;entryX=0;entryY=0.5;entryDx=0;entryDy=0;exitX=1;exitY=0.5;exitDx=0;exitDy=0;" parent="1" source="kJwidPcrHj46GqBheQo3-22" target="kJwidPcrHj46GqBheQo3-115" edge="1">
          <mxGeometry width="100" height="100" relative="1" as="geometry">
            <mxPoint x="380" y="460" as="sourcePoint" />
            <mxPoint x="480" y="360" as="targetPoint" />
          </mxGeometry>
        </mxCell>
        <mxCell id="kJwidPcrHj46GqBheQo3-35" value="textblock_discipline" style="swimlane;fontStyle=0;childLayout=stackLayout;horizontal=1;startSize=26;horizontalStack=0;resizeParent=1;resizeParentMax=0;resizeLast=0;collapsible=1;marginBottom=0;align=center;fontSize=14;" parent="1" vertex="1">
          <mxGeometry x="590" y="439" width="160" height="146" as="geometry" />
        </mxCell>
        <mxCell id="kJwidPcrHj46GqBheQo3-36" value="id&amp;nbsp;" style="text;strokeColor=none;fillColor=none;spacingLeft=4;spacingRight=4;overflow=hidden;rotatable=0;points=[[0,0.5],[1,0.5]];portConstraint=eastwest;fontSize=12;whiteSpace=wrap;html=1;" parent="kJwidPcrHj46GqBheQo3-35" vertex="1">
          <mxGeometry y="26" width="160" height="30" as="geometry" />
        </mxCell>
        <mxCell id="kJwidPcrHj46GqBheQo3-38" value="name&lt;br&gt;" style="text;strokeColor=none;fillColor=none;spacingLeft=4;spacingRight=4;overflow=hidden;rotatable=0;points=[[0,0.5],[1,0.5]];portConstraint=eastwest;fontSize=12;whiteSpace=wrap;html=1;" parent="kJwidPcrHj46GqBheQo3-35" vertex="1">
          <mxGeometry y="56" width="160" height="30" as="geometry" />
        </mxCell>
        <mxCell id="kJwidPcrHj46GqBheQo3-37" value="description" style="text;strokeColor=none;fillColor=none;spacingLeft=4;spacingRight=4;overflow=hidden;rotatable=0;points=[[0,0.5],[1,0.5]];portConstraint=eastwest;fontSize=12;whiteSpace=wrap;html=1;" parent="kJwidPcrHj46GqBheQo3-35" vertex="1">
          <mxGeometry y="86" width="160" height="30" as="geometry" />
        </mxCell>
        <mxCell id="kJwidPcrHj46GqBheQo3-39" value="group_Id" style="text;strokeColor=none;fillColor=none;spacingLeft=4;spacingRight=4;overflow=hidden;rotatable=0;points=[[0,0.5],[1,0.5]];portConstraint=eastwest;fontSize=12;whiteSpace=wrap;html=1;" parent="kJwidPcrHj46GqBheQo3-35" vertex="1">
          <mxGeometry y="116" width="160" height="30" as="geometry" />
        </mxCell>
        <mxCell id="kJwidPcrHj46GqBheQo3-40" value="textblock_group" style="swimlane;fontStyle=0;childLayout=stackLayout;horizontal=1;startSize=26;horizontalStack=0;resizeParent=1;resizeParentMax=0;resizeLast=0;collapsible=1;marginBottom=0;align=center;fontSize=14;" parent="1" vertex="1">
          <mxGeometry x="320" y="439" width="160" height="146" as="geometry" />
        </mxCell>
        <mxCell id="kJwidPcrHj46GqBheQo3-41" value="id&amp;nbsp;" style="text;strokeColor=none;fillColor=none;spacingLeft=4;spacingRight=4;overflow=hidden;rotatable=0;points=[[0,0.5],[1,0.5]];portConstraint=eastwest;fontSize=12;whiteSpace=wrap;html=1;" parent="kJwidPcrHj46GqBheQo3-40" vertex="1">
          <mxGeometry y="26" width="160" height="30" as="geometry" />
        </mxCell>
        <mxCell id="kJwidPcrHj46GqBheQo3-42" value="name&lt;br&gt;" style="text;strokeColor=none;fillColor=none;spacingLeft=4;spacingRight=4;overflow=hidden;rotatable=0;points=[[0,0.5],[1,0.5]];portConstraint=eastwest;fontSize=12;whiteSpace=wrap;html=1;" parent="kJwidPcrHj46GqBheQo3-40" vertex="1">
          <mxGeometry y="56" width="160" height="30" as="geometry" />
        </mxCell>
        <mxCell id="kJwidPcrHj46GqBheQo3-43" value="description" style="text;strokeColor=none;fillColor=none;spacingLeft=4;spacingRight=4;overflow=hidden;rotatable=0;points=[[0,0.5],[1,0.5]];portConstraint=eastwest;fontSize=12;whiteSpace=wrap;html=1;" parent="kJwidPcrHj46GqBheQo3-40" vertex="1">
          <mxGeometry y="86" width="160" height="30" as="geometry" />
        </mxCell>
        <mxCell id="kJwidPcrHj46GqBheQo3-44" value="group_Id" style="text;strokeColor=none;fillColor=none;spacingLeft=4;spacingRight=4;overflow=hidden;rotatable=0;points=[[0,0.5],[1,0.5]];portConstraint=eastwest;fontSize=12;whiteSpace=wrap;html=1;" parent="kJwidPcrHj46GqBheQo3-40" vertex="1">
          <mxGeometry y="116" width="160" height="30" as="geometry" />
        </mxCell>
        <mxCell id="kJwidPcrHj46GqBheQo3-49" value="" style="edgeStyle=elbowEdgeStyle;fontSize=12;html=1;endArrow=ERoneToMany;rounded=0;exitX=0;exitY=0.5;exitDx=0;exitDy=0;entryX=1;entryY=0.5;entryDx=0;entryDy=0;" parent="1" source="kJwidPcrHj46GqBheQo3-28" target="kJwidPcrHj46GqBheQo3-24" edge="1">
          <mxGeometry width="100" height="100" relative="1" as="geometry">
            <mxPoint x="620" y="700" as="sourcePoint" />
            <mxPoint x="720" y="600" as="targetPoint" />
            <Array as="points">
              <mxPoint x="500" y="770" />
            </Array>
          </mxGeometry>
        </mxCell>
        <mxCell id="kJwidPcrHj46GqBheQo3-50" value="" style="edgeStyle=entityRelationEdgeStyle;fontSize=12;html=1;endArrow=ERmandOne;startArrow=ERmandOne;rounded=0;entryX=1;entryY=0.5;entryDx=0;entryDy=0;exitX=1;exitY=0.5;exitDx=0;exitDy=0;" parent="1" source="kJwidPcrHj46GqBheQo3-21" target="kJwidPcrHj46GqBheQo3-44" edge="1">
          <mxGeometry width="100" height="100" relative="1" as="geometry">
            <mxPoint x="490" y="687" as="sourcePoint" />
            <mxPoint x="520" y="580" as="targetPoint" />
          </mxGeometry>
        </mxCell>
        <mxCell id="kJwidPcrHj46GqBheQo3-51" value="" style="edgeStyle=elbowEdgeStyle;fontSize=12;html=1;endArrow=ERmandOne;startArrow=ERmandOne;rounded=0;entryX=0;entryY=0.5;entryDx=0;entryDy=0;exitX=0;exitY=0.25;exitDx=0;exitDy=0;" parent="1" source="kJwidPcrHj46GqBheQo3-25" target="kJwidPcrHj46GqBheQo3-39" edge="1">
          <mxGeometry width="100" height="100" relative="1" as="geometry">
            <mxPoint x="710" y="676" as="sourcePoint" />
            <mxPoint x="870" y="580" as="targetPoint" />
            <Array as="points">
              <mxPoint x="540" y="630" />
            </Array>
          </mxGeometry>
        </mxCell>
        <mxCell id="kJwidPcrHj46GqBheQo3-106" value="login_admin" style="swimlane;fontStyle=0;childLayout=stackLayout;horizontal=1;startSize=26;horizontalStack=0;resizeParent=1;resizeParentMax=0;resizeLast=0;collapsible=1;marginBottom=0;align=center;fontSize=14;" parent="1" vertex="1">
          <mxGeometry x="80" y="260" width="160" height="120" as="geometry" />
        </mxCell>
        <mxCell id="kJwidPcrHj46GqBheQo3-107" value="id" style="text;strokeColor=none;fillColor=none;spacingLeft=4;spacingRight=4;overflow=hidden;rotatable=0;points=[[0,0.5],[1,0.5]];portConstraint=eastwest;fontSize=12;whiteSpace=wrap;html=1;" parent="kJwidPcrHj46GqBheQo3-106" vertex="1">
          <mxGeometry y="26" width="160" height="30" as="geometry" />
        </mxCell>
        <mxCell id="kJwidPcrHj46GqBheQo3-108" value="login&lt;br&gt;&lt;br&gt;pass&lt;br&gt;" style="text;strokeColor=none;fillColor=none;spacingLeft=4;spacingRight=4;overflow=hidden;rotatable=0;points=[[0,0.5],[1,0.5]];portConstraint=eastwest;fontSize=12;whiteSpace=wrap;html=1;" parent="kJwidPcrHj46GqBheQo3-106" vertex="1">
          <mxGeometry y="56" width="160" height="64" as="geometry" />
        </mxCell>
        <mxCell id="kJwidPcrHj46GqBheQo3-109" value="admin_panel" style="swimlane;fontStyle=0;childLayout=stackLayout;horizontal=1;startSize=26;horizontalStack=0;resizeParent=1;resizeParentMax=0;resizeLast=0;collapsible=1;marginBottom=0;align=center;fontSize=14;" parent="1" vertex="1">
          <mxGeometry x="320" y="260" width="160" height="90" as="geometry" />
        </mxCell>
        <mxCell id="kJwidPcrHj46GqBheQo3-111" value="Тут наверное сущности типа кнопок что чего включает, выключает" style="text;strokeColor=none;fillColor=none;spacingLeft=4;spacingRight=4;overflow=hidden;rotatable=0;points=[[0,0.5],[1,0.5]];portConstraint=eastwest;fontSize=12;whiteSpace=wrap;html=1;" parent="kJwidPcrHj46GqBheQo3-109" vertex="1">
          <mxGeometry y="26" width="160" height="64" as="geometry" />
        </mxCell>
        <mxCell id="kJwidPcrHj46GqBheQo3-112" value="Странички, редактирования, тоже в бд надо&lt;br&gt;" style="text;html=1;strokeColor=none;fillColor=none;align=center;verticalAlign=middle;whiteSpace=wrap;rounded=0;" parent="1" vertex="1">
          <mxGeometry x="120" y="156" width="60" height="30" as="geometry" />
        </mxCell>
        <mxCell id="kJwidPcrHj46GqBheQo3-113" value="&lt;span style=&quot;color: rgb(0, 0, 0); font-family: Helvetica; font-size: 12px; font-style: normal; font-variant-ligatures: normal; font-variant-caps: normal; font-weight: 400; letter-spacing: normal; orphans: 2; text-align: center; text-indent: 0px; text-transform: none; widows: 2; word-spacing: 0px; -webkit-text-stroke-width: 0px; background-color: rgb(251, 251, 251); text-decoration-thickness: initial; text-decoration-style: initial; text-decoration-color: initial; float: none; display: inline !important;&quot;&gt;Админ панель:&lt;br&gt;Редактировать всё что есть тут.&lt;br&gt;-скрывать/показывать блок оценок в группах/&amp;nbsp; дисциплинах.&lt;br&gt;-скрывать показывать сообщение для каждой группы/дисциплины&lt;br&gt;-загружать или удалять задания для дисциплины в виде pdf, docx.&lt;br&gt;&lt;br&gt;&lt;/span&gt;" style="text;whiteSpace=wrap;html=1;" parent="1" vertex="1">
          <mxGeometry x="310" y="110" width="280" height="70" as="geometry" />
        </mxCell>
        <mxCell id="kJwidPcrHj46GqBheQo3-122" value="task" style="swimlane;fontStyle=0;childLayout=stackLayout;horizontal=1;startSize=26;horizontalStack=0;resizeParent=1;resizeParentMax=0;resizeLast=0;collapsible=1;marginBottom=0;align=center;fontSize=14;" parent="1" vertex="1">
          <mxGeometry x="820" y="650" width="160" height="142" as="geometry" />
        </mxCell>
        <mxCell id="kJwidPcrHj46GqBheQo3-123" value="id" style="text;strokeColor=none;fillColor=none;spacingLeft=4;spacingRight=4;overflow=hidden;rotatable=0;points=[[0,0.5],[1,0.5]];portConstraint=eastwest;fontSize=12;whiteSpace=wrap;html=1;" parent="kJwidPcrHj46GqBheQo3-122" vertex="1">
          <mxGeometry y="26" width="160" height="30" as="geometry" />
        </mxCell>
        <mxCell id="kJwidPcrHj46GqBheQo3-124" value="value&lt;br&gt;&lt;br&gt;file&lt;br&gt;&lt;br&gt;discipline_id" style="text;strokeColor=none;fillColor=none;spacingLeft=4;spacingRight=4;overflow=hidden;rotatable=0;points=[[0,0.5],[1,0.5]];portConstraint=eastwest;fontSize=12;whiteSpace=wrap;html=1;" parent="kJwidPcrHj46GqBheQo3-122" vertex="1">
          <mxGeometry y="56" width="160" height="86" as="geometry" />
        </mxCell>
        <mxCell id="kJwidPcrHj46GqBheQo3-125" value="" style="edgeStyle=orthogonalEdgeStyle;fontSize=12;html=1;endArrow=ERoneToMany;rounded=0;exitX=1.016;exitY=-0.076;exitDx=0;exitDy=0;entryX=-0.003;entryY=0.184;entryDx=0;entryDy=0;entryPerimeter=0;exitPerimeter=0;" parent="1" source="kJwidPcrHj46GqBheQo3-28" target="kJwidPcrHj46GqBheQo3-123" edge="1">
          <mxGeometry width="100" height="100" relative="1" as="geometry">
            <mxPoint x="750" y="781" as="sourcePoint" />
            <mxPoint x="880" y="820" as="targetPoint" />
          </mxGeometry>
        </mxCell>
        <mxCell id="HRkGqnotARpjoitVVcCS-3" style="edgeStyle=orthogonalEdgeStyle;rounded=0;orthogonalLoop=1;jettySize=auto;html=1;entryX=0.5;entryY=0;entryDx=0;entryDy=0;" edge="1" parent="1" source="HRkGqnotARpjoitVVcCS-24" target="HRkGqnotARpjoitVVcCS-5">
          <mxGeometry relative="1" as="geometry">
            <mxPoint x="-506" y="1556" as="targetPoint" />
          </mxGeometry>
        </mxCell>
        <mxCell id="HRkGqnotARpjoitVVcCS-116" style="edgeStyle=orthogonalEdgeStyle;rounded=0;orthogonalLoop=1;jettySize=auto;html=1;exitX=0.5;exitY=1;exitDx=0;exitDy=0;" edge="1" parent="1" source="HRkGqnotARpjoitVVcCS-1" target="HRkGqnotARpjoitVVcCS-24">
          <mxGeometry relative="1" as="geometry" />
        </mxCell>
        <mxCell id="HRkGqnotARpjoitVVcCS-1" value="&lt;font style=&quot;font-size: 14px;&quot;&gt;Авторизация в панели администратора&lt;/font&gt;" style="rounded=1;whiteSpace=wrap;html=1;" vertex="1" parent="1">
          <mxGeometry x="-374" y="1355" width="120" height="60" as="geometry" />
        </mxCell>
        <mxCell id="HRkGqnotARpjoitVVcCS-125" style="edgeStyle=orthogonalEdgeStyle;rounded=0;orthogonalLoop=1;jettySize=auto;html=1;entryX=0.192;entryY=0.025;entryDx=0;entryDy=0;entryPerimeter=0;" edge="1" parent="1" source="HRkGqnotARpjoitVVcCS-5" target="HRkGqnotARpjoitVVcCS-28">
          <mxGeometry relative="1" as="geometry" />
        </mxCell>
        <mxCell id="HRkGqnotARpjoitVVcCS-5" value="&lt;font style=&quot;font-size: 14px;&quot;&gt;Выбор действия&lt;/font&gt;" style="rounded=1;whiteSpace=wrap;html=1;" vertex="1" parent="1">
          <mxGeometry x="-566" y="1689" width="120" height="60" as="geometry" />
        </mxCell>
        <mxCell id="HRkGqnotARpjoitVVcCS-7" style="edgeStyle=orthogonalEdgeStyle;rounded=0;orthogonalLoop=1;jettySize=auto;html=1;entryX=0.5;entryY=0;entryDx=0;entryDy=0;" edge="1" parent="1" source="HRkGqnotARpjoitVVcCS-6" target="HRkGqnotARpjoitVVcCS-1">
          <mxGeometry relative="1" as="geometry" />
        </mxCell>
        <mxCell id="HRkGqnotARpjoitVVcCS-6" value="&lt;font style=&quot;font-size: 14px;&quot;&gt;Вход на портал&lt;/font&gt;" style="rounded=1;whiteSpace=wrap;html=1;" vertex="1" parent="1">
          <mxGeometry x="-375" y="1230" width="120" height="60" as="geometry" />
        </mxCell>
        <mxCell id="HRkGqnotARpjoitVVcCS-117" style="edgeStyle=orthogonalEdgeStyle;rounded=0;orthogonalLoop=1;jettySize=auto;html=1;entryX=1;entryY=0.5;entryDx=0;entryDy=0;" edge="1" parent="1" source="HRkGqnotARpjoitVVcCS-9" target="HRkGqnotARpjoitVVcCS-6">
          <mxGeometry relative="1" as="geometry">
            <Array as="points">
              <mxPoint x="-56" y="1260" />
            </Array>
          </mxGeometry>
        </mxCell>
        <mxCell id="HRkGqnotARpjoitVVcCS-9" value="&lt;font style=&quot;font-size: 14px;&quot;&gt;Ошибка авторизации&lt;/font&gt;" style="rounded=1;whiteSpace=wrap;html=1;" vertex="1" parent="1">
          <mxGeometry x="-107" y="1506" width="120" height="60" as="geometry" />
        </mxCell>
        <mxCell id="HRkGqnotARpjoitVVcCS-111" style="edgeStyle=orthogonalEdgeStyle;rounded=0;orthogonalLoop=1;jettySize=auto;html=1;exitX=0;exitY=0.5;exitDx=0;exitDy=0;entryX=0.583;entryY=0.992;entryDx=0;entryDy=0;entryPerimeter=0;" edge="1" parent="1" source="HRkGqnotARpjoitVVcCS-11" target="HRkGqnotARpjoitVVcCS-24">
          <mxGeometry relative="1" as="geometry">
            <Array as="points">
              <mxPoint x="-69" y="1671" />
              <mxPoint x="-169" y="1671" />
              <mxPoint x="-169" y="1627" />
              <mxPoint x="-304" y="1627" />
            </Array>
          </mxGeometry>
        </mxCell>
        <mxCell id="HRkGqnotARpjoitVVcCS-119" style="edgeStyle=orthogonalEdgeStyle;rounded=0;orthogonalLoop=1;jettySize=auto;html=1;" edge="1" parent="1" source="HRkGqnotARpjoitVVcCS-11" target="HRkGqnotARpjoitVVcCS-28">
          <mxGeometry relative="1" as="geometry" />
        </mxCell>
        <mxCell id="HRkGqnotARpjoitVVcCS-11" value="&lt;font style=&quot;font-size: 14px;&quot;&gt;Получение данных из БД&lt;/font&gt;" style="rounded=1;whiteSpace=wrap;html=1;" vertex="1" parent="1">
          <mxGeometry x="-69" y="1655" width="120" height="60" as="geometry" />
        </mxCell>
        <mxCell id="HRkGqnotARpjoitVVcCS-16" value="&lt;font style=&quot;font-size: 14px;&quot;&gt;&lt;br&gt;&lt;span style=&quot;color: rgb(0, 0, 0); font-family: Helvetica; font-style: normal; font-variant-ligatures: normal; font-variant-caps: normal; font-weight: 400; letter-spacing: normal; orphans: 2; text-align: center; text-indent: 0px; text-transform: none; widows: 2; word-spacing: 0px; -webkit-text-stroke-width: 0px; background-color: rgb(255, 255, 255); text-decoration-thickness: initial; text-decoration-style: initial; text-decoration-color: initial; float: none; display: inline !important;&quot;&gt;Учетные данные&amp;nbsp;&lt;/span&gt;&lt;br&gt;&lt;/font&gt;" style="text;html=1;strokeColor=none;fillColor=none;align=center;verticalAlign=middle;whiteSpace=wrap;rounded=0;" vertex="1" parent="1">
          <mxGeometry x="-311" y="1450" width="60" height="30" as="geometry" />
        </mxCell>
        <mxCell id="HRkGqnotARpjoitVVcCS-22" value="&lt;font style=&quot;font-size: 14px;&quot;&gt;Запрос на выборку данных&lt;/font&gt;" style="text;html=1;strokeColor=none;fillColor=none;align=center;verticalAlign=middle;whiteSpace=wrap;rounded=0;" vertex="1" parent="1">
          <mxGeometry x="-206" y="1556" width="115" height="30" as="geometry" />
        </mxCell>
        <mxCell id="HRkGqnotARpjoitVVcCS-26" style="edgeStyle=orthogonalEdgeStyle;rounded=0;orthogonalLoop=1;jettySize=auto;html=1;" edge="1" parent="1" source="HRkGqnotARpjoitVVcCS-24" target="HRkGqnotARpjoitVVcCS-9">
          <mxGeometry relative="1" as="geometry" />
        </mxCell>
        <mxCell id="HRkGqnotARpjoitVVcCS-114" style="edgeStyle=orthogonalEdgeStyle;rounded=0;orthogonalLoop=1;jettySize=auto;html=1;exitX=1;exitY=0.75;exitDx=0;exitDy=0;" edge="1" parent="1" source="HRkGqnotARpjoitVVcCS-24" target="HRkGqnotARpjoitVVcCS-11">
          <mxGeometry relative="1" as="geometry">
            <Array as="points">
              <mxPoint x="-226" y="1551" />
              <mxPoint x="-226" y="1592" />
              <mxPoint x="-9" y="1592" />
            </Array>
          </mxGeometry>
        </mxCell>
        <mxCell id="HRkGqnotARpjoitVVcCS-24" value="&lt;font style=&quot;font-size: 14px;&quot;&gt;Обработка авторизации&lt;/font&gt;" style="rounded=1;whiteSpace=wrap;html=1;" vertex="1" parent="1">
          <mxGeometry x="-374" y="1506" width="120" height="60" as="geometry" />
        </mxCell>
        <mxCell id="HRkGqnotARpjoitVVcCS-25" value="&lt;font style=&quot;font-size: 14px;&quot;&gt;Данные из БД&lt;/font&gt;" style="text;html=1;strokeColor=none;fillColor=none;align=center;verticalAlign=middle;whiteSpace=wrap;rounded=0;" vertex="1" parent="1">
          <mxGeometry x="-284" y="1597" width="97" height="30" as="geometry" />
        </mxCell>
        <mxCell id="HRkGqnotARpjoitVVcCS-41" style="edgeStyle=orthogonalEdgeStyle;rounded=0;orthogonalLoop=1;jettySize=auto;html=1;entryX=0.75;entryY=1;entryDx=0;entryDy=0;exitX=0;exitY=0.5;exitDx=0;exitDy=0;" edge="1" parent="1" source="HRkGqnotARpjoitVVcCS-28" target="HRkGqnotARpjoitVVcCS-5">
          <mxGeometry relative="1" as="geometry">
            <mxPoint x="-132.10526315789457" y="1637.5789473684213" as="targetPoint" />
            <mxPoint x="-232" y="1684" as="sourcePoint" />
            <Array as="points">
              <mxPoint x="-72" y="1794" />
              <mxPoint x="-72" y="1786" />
              <mxPoint x="-476" y="1786" />
            </Array>
          </mxGeometry>
        </mxCell>
        <mxCell id="HRkGqnotARpjoitVVcCS-45" style="edgeStyle=orthogonalEdgeStyle;rounded=0;orthogonalLoop=1;jettySize=auto;html=1;exitX=0.5;exitY=1;exitDx=0;exitDy=0;entryX=1;entryY=0.5;entryDx=0;entryDy=0;" edge="1" parent="1" source="HRkGqnotARpjoitVVcCS-28" target="HRkGqnotARpjoitVVcCS-44">
          <mxGeometry relative="1" as="geometry" />
        </mxCell>
        <mxCell id="HRkGqnotARpjoitVVcCS-122" style="edgeStyle=orthogonalEdgeStyle;rounded=0;orthogonalLoop=1;jettySize=auto;html=1;entryX=1;entryY=0.5;entryDx=0;entryDy=0;exitX=1;exitY=0.5;exitDx=0;exitDy=0;" edge="1" parent="1" source="HRkGqnotARpjoitVVcCS-28" target="HRkGqnotARpjoitVVcCS-11">
          <mxGeometry relative="1" as="geometry">
            <mxPoint x="55" y="1808" as="sourcePoint" />
            <Array as="points">
              <mxPoint x="-12" y="1791" />
              <mxPoint x="99" y="1791" />
              <mxPoint x="99" y="1685" />
            </Array>
          </mxGeometry>
        </mxCell>
        <mxCell id="HRkGqnotARpjoitVVcCS-28" value="&lt;font style=&quot;font-size: 14px;&quot;&gt;Редактирование БД&lt;/font&gt;" style="rounded=1;whiteSpace=wrap;html=1;" vertex="1" parent="1">
          <mxGeometry x="-132" y="1764" width="120" height="60" as="geometry" />
        </mxCell>
        <mxCell id="HRkGqnotARpjoitVVcCS-30" value="&lt;font style=&quot;font-size: 14px;&quot;&gt;Сообщение об ошибке&lt;/font&gt;" style="text;html=1;strokeColor=none;fillColor=none;align=center;verticalAlign=middle;whiteSpace=wrap;rounded=0;" vertex="1" parent="1">
          <mxGeometry x="-229" y="1501" width="97" height="30" as="geometry" />
        </mxCell>
        <mxCell id="HRkGqnotARpjoitVVcCS-31" value="&lt;font style=&quot;font-size: 14px;&quot;&gt;Сообщение об успехе&lt;/font&gt;" style="text;html=1;strokeColor=none;fillColor=none;align=center;verticalAlign=middle;whiteSpace=wrap;rounded=0;" vertex="1" parent="1">
          <mxGeometry x="-494" y="1503" width="97" height="30" as="geometry" />
        </mxCell>
        <mxCell id="HRkGqnotARpjoitVVcCS-32" value="&lt;font style=&quot;font-size: 14px;&quot;&gt;Запрос на изменение данных&lt;/font&gt;" style="text;html=1;strokeColor=none;fillColor=none;align=center;verticalAlign=middle;whiteSpace=wrap;rounded=0;" vertex="1" parent="1">
          <mxGeometry x="-397" y="1677" width="113" height="30" as="geometry" />
        </mxCell>
        <mxCell id="HRkGqnotARpjoitVVcCS-42" value="&lt;font style=&quot;font-size: 14px;&quot;&gt;Сообщение об ошибке&lt;/font&gt;" style="text;html=1;strokeColor=none;fillColor=none;align=center;verticalAlign=middle;whiteSpace=wrap;rounded=0;" vertex="1" parent="1">
          <mxGeometry x="-388" y="1743" width="113" height="30" as="geometry" />
        </mxCell>
        <mxCell id="HRkGqnotARpjoitVVcCS-49" style="edgeStyle=orthogonalEdgeStyle;rounded=0;orthogonalLoop=1;jettySize=auto;html=1;exitX=0;exitY=0.5;exitDx=0;exitDy=0;entryX=0.25;entryY=1;entryDx=0;entryDy=0;" edge="1" parent="1" source="HRkGqnotARpjoitVVcCS-44" target="HRkGqnotARpjoitVVcCS-5">
          <mxGeometry relative="1" as="geometry" />
        </mxCell>
        <mxCell id="HRkGqnotARpjoitVVcCS-50" style="edgeStyle=orthogonalEdgeStyle;rounded=0;orthogonalLoop=1;jettySize=auto;html=1;entryX=0.5;entryY=0;entryDx=0;entryDy=0;" edge="1" parent="1" source="HRkGqnotARpjoitVVcCS-44" target="HRkGqnotARpjoitVVcCS-51">
          <mxGeometry relative="1" as="geometry">
            <mxPoint x="-367" y="1929" as="targetPoint" />
          </mxGeometry>
        </mxCell>
        <mxCell id="HRkGqnotARpjoitVVcCS-44" value="&lt;font style=&quot;font-size: 14px;&quot;&gt;Подключение к серверу&lt;/font&gt;" style="rounded=1;whiteSpace=wrap;html=1;" vertex="1" parent="1">
          <mxGeometry x="-427" y="1818" width="120" height="60" as="geometry" />
        </mxCell>
        <mxCell id="HRkGqnotARpjoitVVcCS-46" value="&lt;font style=&quot;font-size: 14px;&quot;&gt;Запрос на подключение к серверу&lt;/font&gt;" style="text;html=1;strokeColor=none;fillColor=none;align=center;verticalAlign=middle;whiteSpace=wrap;rounded=0;" vertex="1" parent="1">
          <mxGeometry x="-280" y="1809" width="113" height="30" as="geometry" />
        </mxCell>
        <mxCell id="HRkGqnotARpjoitVVcCS-48" value="&lt;font style=&quot;font-size: 14px;&quot;&gt;Сообщение об ошибке&lt;/font&gt;" style="text;html=1;strokeColor=none;fillColor=none;align=center;verticalAlign=middle;whiteSpace=wrap;rounded=0;" vertex="1" parent="1">
          <mxGeometry x="-540" y="1814" width="113" height="30" as="geometry" />
        </mxCell>
        <mxCell id="HRkGqnotARpjoitVVcCS-52" style="edgeStyle=orthogonalEdgeStyle;rounded=0;orthogonalLoop=1;jettySize=auto;html=1;entryX=0;entryY=0.5;entryDx=0;entryDy=0;" edge="1" parent="1" source="HRkGqnotARpjoitVVcCS-51" target="HRkGqnotARpjoitVVcCS-5">
          <mxGeometry relative="1" as="geometry" />
        </mxCell>
        <mxCell id="HRkGqnotARpjoitVVcCS-51" value="&lt;font style=&quot;font-size: 14px;&quot;&gt;Обновление данных на портале&lt;/font&gt;" style="rounded=1;whiteSpace=wrap;html=1;" vertex="1" parent="1">
          <mxGeometry x="-427" y="1955" width="120" height="60" as="geometry" />
        </mxCell>
        <mxCell id="HRkGqnotARpjoitVVcCS-53" value="&lt;font style=&quot;font-size: 14px;&quot;&gt;Измененные данные&lt;/font&gt;" style="text;html=1;strokeColor=none;fillColor=none;align=center;verticalAlign=middle;whiteSpace=wrap;rounded=0;" vertex="1" parent="1">
          <mxGeometry x="-375" y="1904" width="113" height="30" as="geometry" />
        </mxCell>
        <mxCell id="HRkGqnotARpjoitVVcCS-55" value="&lt;font style=&quot;font-size: 30px;&quot;&gt;STD&lt;/font&gt;" style="text;html=1;strokeColor=none;fillColor=none;align=center;verticalAlign=middle;whiteSpace=wrap;rounded=0;" vertex="1" parent="1">
          <mxGeometry x="-374" y="1143" width="128" height="78" as="geometry" />
        </mxCell>
        <mxCell id="HRkGqnotARpjoitVVcCS-56" value="SADT" style="text;html=1;strokeColor=none;fillColor=none;align=center;verticalAlign=middle;whiteSpace=wrap;rounded=0;" vertex="1" parent="1">
          <mxGeometry x="640" y="1028" width="60" height="30" as="geometry" />
        </mxCell>
        <mxCell id="HRkGqnotARpjoitVVcCS-60" style="edgeStyle=orthogonalEdgeStyle;rounded=0;orthogonalLoop=1;jettySize=auto;html=1;entryX=0;entryY=0.5;entryDx=0;entryDy=0;" edge="1" parent="1" source="HRkGqnotARpjoitVVcCS-57" target="HRkGqnotARpjoitVVcCS-61">
          <mxGeometry relative="1" as="geometry">
            <mxPoint x="521.25" y="1324" as="targetPoint" />
          </mxGeometry>
        </mxCell>
        <mxCell id="HRkGqnotARpjoitVVcCS-57" value="&lt;font style=&quot;font-size: 14px;&quot;&gt;Вход на портал&lt;/font&gt;" style="rounded=1;whiteSpace=wrap;html=1;" vertex="1" parent="1">
          <mxGeometry x="340" y="1294" width="120" height="60" as="geometry" />
        </mxCell>
        <mxCell id="HRkGqnotARpjoitVVcCS-146" style="edgeStyle=orthogonalEdgeStyle;rounded=0;orthogonalLoop=1;jettySize=auto;html=1;exitX=0.5;exitY=1;exitDx=0;exitDy=0;entryX=0.25;entryY=0;entryDx=0;entryDy=0;" edge="1" parent="1" source="HRkGqnotARpjoitVVcCS-58" target="HRkGqnotARpjoitVVcCS-57">
          <mxGeometry relative="1" as="geometry">
            <Array as="points">
              <mxPoint x="370" y="1257" />
            </Array>
          </mxGeometry>
        </mxCell>
        <mxCell id="HRkGqnotARpjoitVVcCS-58" value="&lt;font style=&quot;font-size: 14px;&quot;&gt;Пользователь&lt;/font&gt;" style="text;html=1;strokeColor=none;fillColor=none;align=center;verticalAlign=middle;whiteSpace=wrap;rounded=0;" vertex="1" parent="1">
          <mxGeometry x="333" y="1227" width="60" height="30" as="geometry" />
        </mxCell>
        <mxCell id="HRkGqnotARpjoitVVcCS-68" style="edgeStyle=orthogonalEdgeStyle;rounded=0;orthogonalLoop=1;jettySize=auto;html=1;entryX=0;entryY=0.5;entryDx=0;entryDy=0;" edge="1" parent="1" source="HRkGqnotARpjoitVVcCS-61" target="HRkGqnotARpjoitVVcCS-67">
          <mxGeometry relative="1" as="geometry" />
        </mxCell>
        <mxCell id="HRkGqnotARpjoitVVcCS-61" value="&lt;font style=&quot;font-size: 14px;&quot;&gt;Авторизация в панели администратора&lt;/font&gt;" style="rounded=1;whiteSpace=wrap;html=1;" vertex="1" parent="1">
          <mxGeometry x="512" y="1294" width="120" height="60" as="geometry" />
        </mxCell>
        <mxCell id="HRkGqnotARpjoitVVcCS-63" style="edgeStyle=orthogonalEdgeStyle;rounded=0;orthogonalLoop=1;jettySize=auto;html=1;entryX=0.5;entryY=0;entryDx=0;entryDy=0;" edge="1" parent="1" source="HRkGqnotARpjoitVVcCS-62" target="HRkGqnotARpjoitVVcCS-61">
          <mxGeometry relative="1" as="geometry" />
        </mxCell>
        <mxCell id="HRkGqnotARpjoitVVcCS-62" value="&lt;font style=&quot;font-size: 14px;&quot;&gt;Пользователь&lt;/font&gt;" style="text;html=1;strokeColor=none;fillColor=none;align=center;verticalAlign=middle;whiteSpace=wrap;rounded=0;" vertex="1" parent="1">
          <mxGeometry x="530.5" y="1227" width="83" height="30" as="geometry" />
        </mxCell>
        <mxCell id="HRkGqnotARpjoitVVcCS-65" style="edgeStyle=orthogonalEdgeStyle;rounded=0;orthogonalLoop=1;jettySize=auto;html=1;entryX=0.5;entryY=1;entryDx=0;entryDy=0;" edge="1" parent="1" source="HRkGqnotARpjoitVVcCS-64" target="HRkGqnotARpjoitVVcCS-61">
          <mxGeometry relative="1" as="geometry" />
        </mxCell>
        <mxCell id="HRkGqnotARpjoitVVcCS-64" value="&lt;span style=&quot;font-size: 14px;&quot;&gt;Учетные данные&lt;/span&gt;" style="text;html=1;strokeColor=none;fillColor=none;align=center;verticalAlign=middle;whiteSpace=wrap;rounded=0;" vertex="1" parent="1">
          <mxGeometry x="521.75" y="1398" width="100.5" height="30" as="geometry" />
        </mxCell>
        <mxCell id="HRkGqnotARpjoitVVcCS-147" style="edgeStyle=orthogonalEdgeStyle;rounded=0;orthogonalLoop=1;jettySize=auto;html=1;entryX=0.75;entryY=0;entryDx=0;entryDy=0;" edge="1" parent="1" source="HRkGqnotARpjoitVVcCS-148" target="HRkGqnotARpjoitVVcCS-57">
          <mxGeometry relative="1" as="geometry">
            <mxPoint x="704.1578947368421" y="1147.5263157894738" as="targetPoint" />
            <Array as="points">
              <mxPoint x="430" y="1192" />
            </Array>
          </mxGeometry>
        </mxCell>
        <mxCell id="HRkGqnotARpjoitVVcCS-154" style="edgeStyle=orthogonalEdgeStyle;rounded=0;orthogonalLoop=1;jettySize=auto;html=1;exitX=0.5;exitY=0;exitDx=0;exitDy=0;entryX=1;entryY=0.5;entryDx=0;entryDy=0;" edge="1" parent="1" source="HRkGqnotARpjoitVVcCS-67" target="HRkGqnotARpjoitVVcCS-148">
          <mxGeometry relative="1" as="geometry" />
        </mxCell>
        <mxCell id="HRkGqnotARpjoitVVcCS-169" style="edgeStyle=orthogonalEdgeStyle;rounded=0;orthogonalLoop=1;jettySize=auto;html=1;" edge="1" parent="1" source="HRkGqnotARpjoitVVcCS-67" target="HRkGqnotARpjoitVVcCS-168">
          <mxGeometry relative="1" as="geometry">
            <Array as="points">
              <mxPoint x="817" y="1324" />
              <mxPoint x="817" y="1462" />
              <mxPoint x="393" y="1462" />
            </Array>
          </mxGeometry>
        </mxCell>
        <mxCell id="HRkGqnotARpjoitVVcCS-67" value="&lt;font style=&quot;font-size: 14px;&quot;&gt;Обработка авторизации&lt;/font&gt;" style="rounded=1;whiteSpace=wrap;html=1;" vertex="1" parent="1">
          <mxGeometry x="671" y="1294" width="120" height="60" as="geometry" />
        </mxCell>
        <mxCell id="HRkGqnotARpjoitVVcCS-137" style="edgeStyle=orthogonalEdgeStyle;rounded=0;orthogonalLoop=1;jettySize=auto;html=1;entryX=0.123;entryY=0.021;entryDx=0;entryDy=0;entryPerimeter=0;" edge="1" parent="1" source="HRkGqnotARpjoitVVcCS-69" target="HRkGqnotARpjoitVVcCS-67">
          <mxGeometry relative="1" as="geometry" />
        </mxCell>
        <mxCell id="HRkGqnotARpjoitVVcCS-69" value="&lt;font style=&quot;font-size: 14px;&quot;&gt;Учетные данные&lt;/font&gt;" style="text;html=1;strokeColor=none;fillColor=none;align=center;verticalAlign=middle;whiteSpace=wrap;rounded=0;" vertex="1" parent="1">
          <mxGeometry x="644" y="1232" width="83" height="30" as="geometry" />
        </mxCell>
        <mxCell id="HRkGqnotARpjoitVVcCS-71" style="edgeStyle=orthogonalEdgeStyle;rounded=0;orthogonalLoop=1;jettySize=auto;html=1;" edge="1" parent="1" target="HRkGqnotARpjoitVVcCS-67">
          <mxGeometry relative="1" as="geometry">
            <mxPoint x="731" y="1396" as="sourcePoint" />
          </mxGeometry>
        </mxCell>
        <mxCell id="HRkGqnotARpjoitVVcCS-74" style="edgeStyle=orthogonalEdgeStyle;rounded=0;orthogonalLoop=1;jettySize=auto;html=1;entryX=0.5;entryY=0;entryDx=0;entryDy=0;" edge="1" parent="1" source="HRkGqnotARpjoitVVcCS-91" target="HRkGqnotARpjoitVVcCS-79">
          <mxGeometry relative="1" as="geometry" />
        </mxCell>
        <mxCell id="HRkGqnotARpjoitVVcCS-75" style="edgeStyle=orthogonalEdgeStyle;rounded=0;orthogonalLoop=1;jettySize=auto;html=1;entryX=0.5;entryY=0;entryDx=0;entryDy=0;" edge="1" parent="1" source="HRkGqnotARpjoitVVcCS-77" target="HRkGqnotARpjoitVVcCS-88">
          <mxGeometry relative="1" as="geometry">
            <mxPoint x="1125.9200000000003" y="-810.121212121212" as="targetPoint" />
          </mxGeometry>
        </mxCell>
        <mxCell id="HRkGqnotARpjoitVVcCS-77" value="Авторизация в панели администратора" style="rounded=1;whiteSpace=wrap;html=1;" vertex="1" parent="1">
          <mxGeometry x="1061.92" y="-918" width="120" height="60" as="geometry" />
        </mxCell>
        <mxCell id="HRkGqnotARpjoitVVcCS-78" style="edgeStyle=orthogonalEdgeStyle;rounded=0;orthogonalLoop=1;jettySize=auto;html=1;entryX=0.5;entryY=0;entryDx=0;entryDy=0;" edge="1" parent="1" source="HRkGqnotARpjoitVVcCS-79" target="HRkGqnotARpjoitVVcCS-81">
          <mxGeometry relative="1" as="geometry">
            <mxPoint x="1125.92" y="-594.3636363636363" as="targetPoint" />
          </mxGeometry>
        </mxCell>
        <mxCell id="HRkGqnotARpjoitVVcCS-79" value="Успешная авторизация" style="rounded=1;whiteSpace=wrap;html=1;" vertex="1" parent="1">
          <mxGeometry x="869.9200000000001" y="-586" width="120" height="60" as="geometry" />
        </mxCell>
        <mxCell id="HRkGqnotARpjoitVVcCS-80" style="edgeStyle=orthogonalEdgeStyle;rounded=0;orthogonalLoop=1;jettySize=auto;html=1;entryX=0;entryY=0.5;entryDx=0;entryDy=0;" edge="1" parent="1" source="HRkGqnotARpjoitVVcCS-81" target="HRkGqnotARpjoitVVcCS-95">
          <mxGeometry relative="1" as="geometry" />
        </mxCell>
        <mxCell id="HRkGqnotARpjoitVVcCS-81" value="Выбор действия" style="rounded=1;whiteSpace=wrap;html=1;" vertex="1" parent="1">
          <mxGeometry x="869.9200000000001" y="-453" width="120" height="60" as="geometry" />
        </mxCell>
        <mxCell id="HRkGqnotARpjoitVVcCS-82" style="edgeStyle=orthogonalEdgeStyle;rounded=0;orthogonalLoop=1;jettySize=auto;html=1;entryX=0.5;entryY=0;entryDx=0;entryDy=0;" edge="1" parent="1" source="HRkGqnotARpjoitVVcCS-83" target="HRkGqnotARpjoitVVcCS-77">
          <mxGeometry relative="1" as="geometry" />
        </mxCell>
        <mxCell id="HRkGqnotARpjoitVVcCS-83" value="Вход на портал" style="rounded=1;whiteSpace=wrap;html=1;" vertex="1" parent="1">
          <mxGeometry x="1061.92" y="-1017" width="120" height="60" as="geometry" />
        </mxCell>
        <mxCell id="HRkGqnotARpjoitVVcCS-84" style="edgeStyle=orthogonalEdgeStyle;rounded=0;orthogonalLoop=1;jettySize=auto;html=1;entryX=0.5;entryY=0;entryDx=0;entryDy=0;" edge="1" parent="1" source="HRkGqnotARpjoitVVcCS-85" target="HRkGqnotARpjoitVVcCS-91">
          <mxGeometry relative="1" as="geometry" />
        </mxCell>
        <mxCell id="HRkGqnotARpjoitVVcCS-85" value="Получение данных из БД" style="rounded=1;whiteSpace=wrap;html=1;" vertex="1" parent="1">
          <mxGeometry x="1061.92" y="-765" width="120" height="60" as="geometry" />
        </mxCell>
        <mxCell id="HRkGqnotARpjoitVVcCS-86" value="&#xa;&lt;span style=&quot;color: rgb(0, 0, 0); font-family: Helvetica; font-size: 12px; font-style: normal; font-variant-ligatures: normal; font-variant-caps: normal; font-weight: 400; letter-spacing: normal; orphans: 2; text-align: center; text-indent: 0px; text-transform: none; widows: 2; word-spacing: 0px; -webkit-text-stroke-width: 0px; background-color: rgb(255, 255, 255); text-decoration-thickness: initial; text-decoration-style: initial; text-decoration-color: initial; float: none; display: inline !important;&quot;&gt;Учетные данные&amp;nbsp;&lt;/span&gt;&#xa;&#xa;" style="text;html=1;strokeColor=none;fillColor=none;align=center;verticalAlign=middle;whiteSpace=wrap;rounded=0;" vertex="1" parent="1">
          <mxGeometry x="964.9200000000001" y="-918" width="60" height="30" as="geometry" />
        </mxCell>
        <mxCell id="HRkGqnotARpjoitVVcCS-87" style="edgeStyle=orthogonalEdgeStyle;rounded=0;orthogonalLoop=1;jettySize=auto;html=1;entryX=0.25;entryY=0;entryDx=0;entryDy=0;" edge="1" parent="1" source="HRkGqnotARpjoitVVcCS-88" target="HRkGqnotARpjoitVVcCS-85">
          <mxGeometry relative="1" as="geometry" />
        </mxCell>
        <mxCell id="HRkGqnotARpjoitVVcCS-88" value="Создание запроса к БД&amp;nbsp;" style="rounded=1;whiteSpace=wrap;html=1;" vertex="1" parent="1">
          <mxGeometry x="860.9200000000001" y="-827" width="120" height="60" as="geometry" />
        </mxCell>
        <mxCell id="HRkGqnotARpjoitVVcCS-89" value="Запрос на выборку данных" style="text;html=1;strokeColor=none;fillColor=none;align=center;verticalAlign=middle;whiteSpace=wrap;rounded=0;" vertex="1" parent="1">
          <mxGeometry x="992.9200000000001" y="-827" width="97" height="30" as="geometry" />
        </mxCell>
        <mxCell id="HRkGqnotARpjoitVVcCS-90" style="edgeStyle=orthogonalEdgeStyle;rounded=0;orthogonalLoop=1;jettySize=auto;html=1;" edge="1" parent="1" source="HRkGqnotARpjoitVVcCS-91">
          <mxGeometry relative="1" as="geometry">
            <mxPoint x="1278.92" y="-606" as="targetPoint" />
          </mxGeometry>
        </mxCell>
        <mxCell id="HRkGqnotARpjoitVVcCS-91" value="Обработка авторизации" style="rounded=1;whiteSpace=wrap;html=1;" vertex="1" parent="1">
          <mxGeometry x="1061.92" y="-636" width="120" height="60" as="geometry" />
        </mxCell>
        <mxCell id="HRkGqnotARpjoitVVcCS-92" value="Данные из БД" style="text;html=1;strokeColor=none;fillColor=none;align=center;verticalAlign=middle;whiteSpace=wrap;rounded=0;" vertex="1" parent="1">
          <mxGeometry x="1119.92" y="-687" width="97" height="30" as="geometry" />
        </mxCell>
        <mxCell id="HRkGqnotARpjoitVVcCS-93" style="edgeStyle=orthogonalEdgeStyle;rounded=0;orthogonalLoop=1;jettySize=auto;html=1;entryX=0.817;entryY=0;entryDx=0;entryDy=0;entryPerimeter=0;exitX=0.5;exitY=0;exitDx=0;exitDy=0;" edge="1" parent="1" source="HRkGqnotARpjoitVVcCS-95" target="HRkGqnotARpjoitVVcCS-81">
          <mxGeometry relative="1" as="geometry">
            <mxPoint x="1303.8147368421055" y="-504.42105263157873" as="targetPoint" />
            <mxPoint x="1203.92" y="-458" as="sourcePoint" />
            <Array as="points">
              <mxPoint x="1203.92" y="-500" />
              <mxPoint x="967.9200000000001" y="-500" />
            </Array>
          </mxGeometry>
        </mxCell>
        <mxCell id="HRkGqnotARpjoitVVcCS-94" style="edgeStyle=orthogonalEdgeStyle;rounded=0;orthogonalLoop=1;jettySize=auto;html=1;exitX=0.5;exitY=1;exitDx=0;exitDy=0;entryX=1;entryY=0.5;entryDx=0;entryDy=0;" edge="1" parent="1" source="HRkGqnotARpjoitVVcCS-95" target="HRkGqnotARpjoitVVcCS-102">
          <mxGeometry relative="1" as="geometry" />
        </mxCell>
        <mxCell id="HRkGqnotARpjoitVVcCS-95" value="Редактирование БД" style="rounded=1;whiteSpace=wrap;html=1;" vertex="1" parent="1">
          <mxGeometry x="1143.92" y="-453" width="120" height="60" as="geometry" />
        </mxCell>
        <mxCell id="HRkGqnotARpjoitVVcCS-96" value="Сообщение об ошибке" style="text;html=1;strokeColor=none;fillColor=none;align=center;verticalAlign=middle;whiteSpace=wrap;rounded=0;" vertex="1" parent="1">
          <mxGeometry x="1179.92" y="-639" width="97" height="30" as="geometry" />
        </mxCell>
        <mxCell id="HRkGqnotARpjoitVVcCS-97" value="Сообщение об успехе" style="text;html=1;strokeColor=none;fillColor=none;align=center;verticalAlign=middle;whiteSpace=wrap;rounded=0;" vertex="1" parent="1">
          <mxGeometry x="941.9200000000001" y="-639" width="97" height="30" as="geometry" />
        </mxCell>
        <mxCell id="HRkGqnotARpjoitVVcCS-98" value="Запрос на изменение данных" style="text;html=1;strokeColor=none;fillColor=none;align=center;verticalAlign=middle;whiteSpace=wrap;rounded=0;" vertex="1" parent="1">
          <mxGeometry x="998.9200000000001" y="-457" width="113" height="30" as="geometry" />
        </mxCell>
        <mxCell id="HRkGqnotARpjoitVVcCS-99" value="Сообщение об ошибке" style="text;html=1;strokeColor=none;fillColor=none;align=center;verticalAlign=middle;whiteSpace=wrap;rounded=0;" vertex="1" parent="1">
          <mxGeometry x="1024.92" y="-532" width="113" height="30" as="geometry" />
        </mxCell>
        <mxCell id="HRkGqnotARpjoitVVcCS-100" style="edgeStyle=orthogonalEdgeStyle;rounded=0;orthogonalLoop=1;jettySize=auto;html=1;exitX=0;exitY=0.5;exitDx=0;exitDy=0;entryX=0.25;entryY=1;entryDx=0;entryDy=0;" edge="1" parent="1" source="HRkGqnotARpjoitVVcCS-102" target="HRkGqnotARpjoitVVcCS-81">
          <mxGeometry relative="1" as="geometry" />
        </mxCell>
        <mxCell id="HRkGqnotARpjoitVVcCS-101" style="edgeStyle=orthogonalEdgeStyle;rounded=0;orthogonalLoop=1;jettySize=auto;html=1;entryX=0.5;entryY=0;entryDx=0;entryDy=0;" edge="1" parent="1" source="HRkGqnotARpjoitVVcCS-102" target="HRkGqnotARpjoitVVcCS-106">
          <mxGeometry relative="1" as="geometry">
            <mxPoint x="1068.92" y="-213" as="targetPoint" />
          </mxGeometry>
        </mxCell>
        <mxCell id="HRkGqnotARpjoitVVcCS-102" value="Подключение к серверу" style="rounded=1;whiteSpace=wrap;html=1;" vertex="1" parent="1">
          <mxGeometry x="1008.9200000000001" y="-324" width="120" height="60" as="geometry" />
        </mxCell>
        <mxCell id="HRkGqnotARpjoitVVcCS-103" value="Запрос на подключение к серверу" style="text;html=1;strokeColor=none;fillColor=none;align=center;verticalAlign=middle;whiteSpace=wrap;rounded=0;" vertex="1" parent="1">
          <mxGeometry x="1100.92" y="-366" width="113" height="30" as="geometry" />
        </mxCell>
        <mxCell id="HRkGqnotARpjoitVVcCS-104" value="Сообщение об ошибке" style="text;html=1;strokeColor=none;fillColor=none;align=center;verticalAlign=middle;whiteSpace=wrap;rounded=0;" vertex="1" parent="1">
          <mxGeometry x="895.9200000000001" y="-328" width="113" height="30" as="geometry" />
        </mxCell>
        <mxCell id="HRkGqnotARpjoitVVcCS-105" style="edgeStyle=orthogonalEdgeStyle;rounded=0;orthogonalLoop=1;jettySize=auto;html=1;entryX=0;entryY=0.5;entryDx=0;entryDy=0;" edge="1" parent="1" source="HRkGqnotARpjoitVVcCS-106" target="HRkGqnotARpjoitVVcCS-81">
          <mxGeometry relative="1" as="geometry" />
        </mxCell>
        <mxCell id="HRkGqnotARpjoitVVcCS-106" value="Обновление данных в связи с изменениями" style="rounded=1;whiteSpace=wrap;html=1;" vertex="1" parent="1">
          <mxGeometry x="1008.9200000000001" y="-206" width="120" height="60" as="geometry" />
        </mxCell>
        <mxCell id="HRkGqnotARpjoitVVcCS-107" value="Измененные данные" style="text;html=1;strokeColor=none;fillColor=none;align=center;verticalAlign=middle;whiteSpace=wrap;rounded=0;" vertex="1" parent="1">
          <mxGeometry x="1056.92" y="-250" width="113" height="30" as="geometry" />
        </mxCell>
        <mxCell id="HRkGqnotARpjoitVVcCS-108" value="&lt;font style=&quot;font-size: 30px;&quot;&gt;STD старое&lt;/font&gt;" style="text;html=1;strokeColor=none;fillColor=none;align=center;verticalAlign=middle;whiteSpace=wrap;rounded=0;" vertex="1" parent="1">
          <mxGeometry x="1056.92" y="-1143" width="128" height="78" as="geometry" />
        </mxCell>
        <mxCell id="HRkGqnotARpjoitVVcCS-110" style="edgeStyle=orthogonalEdgeStyle;rounded=0;orthogonalLoop=1;jettySize=auto;html=1;entryX=1;entryY=0.5;entryDx=0;entryDy=0;" edge="1" parent="1" source="HRkGqnotARpjoitVVcCS-109" target="HRkGqnotARpjoitVVcCS-83">
          <mxGeometry relative="1" as="geometry">
            <Array as="points">
              <mxPoint x="1333" y="-987" />
            </Array>
          </mxGeometry>
        </mxCell>
        <mxCell id="HRkGqnotARpjoitVVcCS-109" value="Ошибка авторизации" style="rounded=1;whiteSpace=wrap;html=1;" vertex="1" parent="1">
          <mxGeometry x="1276.92" y="-636" width="120" height="60" as="geometry" />
        </mxCell>
        <mxCell id="HRkGqnotARpjoitVVcCS-121" value="&lt;font style=&quot;font-size: 14px;&quot;&gt;Данные из БД&lt;/font&gt;" style="text;html=1;strokeColor=none;fillColor=none;align=center;verticalAlign=middle;whiteSpace=wrap;rounded=0;" vertex="1" parent="1">
          <mxGeometry x="-107" y="1713" width="97" height="30" as="geometry" />
        </mxCell>
        <mxCell id="HRkGqnotARpjoitVVcCS-123" value="&lt;font style=&quot;font-size: 14px;&quot;&gt;Новые данные&lt;/font&gt;" style="text;html=1;strokeColor=none;fillColor=none;align=center;verticalAlign=middle;whiteSpace=wrap;rounded=0;" vertex="1" parent="1">
          <mxGeometry x="-12" y="1761" width="115" height="30" as="geometry" />
        </mxCell>
        <mxCell id="HRkGqnotARpjoitVVcCS-176" style="edgeStyle=orthogonalEdgeStyle;rounded=0;orthogonalLoop=1;jettySize=auto;html=1;" edge="1" parent="1" source="HRkGqnotARpjoitVVcCS-132">
          <mxGeometry relative="1" as="geometry">
            <mxPoint x="762" y="1541.0000000000005" as="targetPoint" />
          </mxGeometry>
        </mxCell>
        <mxCell id="HRkGqnotARpjoitVVcCS-187" style="edgeStyle=orthogonalEdgeStyle;rounded=0;orthogonalLoop=1;jettySize=auto;html=1;exitX=0;exitY=0.75;exitDx=0;exitDy=0;entryX=0.5;entryY=0;entryDx=0;entryDy=0;" edge="1" parent="1" source="HRkGqnotARpjoitVVcCS-132" target="HRkGqnotARpjoitVVcCS-186">
          <mxGeometry relative="1" as="geometry" />
        </mxCell>
        <mxCell id="HRkGqnotARpjoitVVcCS-132" value="&lt;span style=&quot;font-size: 14px;&quot;&gt;Редактирование БД&lt;/span&gt;" style="rounded=1;whiteSpace=wrap;html=1;" vertex="1" parent="1">
          <mxGeometry x="567" y="1511" width="120" height="60" as="geometry" />
        </mxCell>
        <mxCell id="HRkGqnotARpjoitVVcCS-135" style="edgeStyle=orthogonalEdgeStyle;rounded=0;orthogonalLoop=1;jettySize=auto;html=1;" edge="1" parent="1" source="HRkGqnotARpjoitVVcCS-134" target="HRkGqnotARpjoitVVcCS-132">
          <mxGeometry relative="1" as="geometry" />
        </mxCell>
        <mxCell id="HRkGqnotARpjoitVVcCS-134" value="&lt;font style=&quot;font-size: 14px;&quot;&gt;Запрос&lt;/font&gt;" style="text;html=1;strokeColor=none;fillColor=none;align=center;verticalAlign=middle;whiteSpace=wrap;rounded=0;" vertex="1" parent="1">
          <mxGeometry x="585.5000000000001" y="1640" width="83" height="30" as="geometry" />
        </mxCell>
        <mxCell id="HRkGqnotARpjoitVVcCS-138" style="edgeStyle=orthogonalEdgeStyle;rounded=0;orthogonalLoop=1;jettySize=auto;html=1;entryX=0.75;entryY=0;entryDx=0;entryDy=0;" edge="1" parent="1" source="HRkGqnotARpjoitVVcCS-136" target="HRkGqnotARpjoitVVcCS-67">
          <mxGeometry relative="1" as="geometry" />
        </mxCell>
        <mxCell id="HRkGqnotARpjoitVVcCS-136" value="&lt;font style=&quot;font-size: 14px;&quot;&gt;ПО&lt;/font&gt;" style="text;html=1;strokeColor=none;fillColor=none;align=center;verticalAlign=middle;whiteSpace=wrap;rounded=0;" vertex="1" parent="1">
          <mxGeometry x="719" y="1232" width="83" height="30" as="geometry" />
        </mxCell>
        <mxCell id="HRkGqnotARpjoitVVcCS-139" style="edgeStyle=orthogonalEdgeStyle;rounded=0;orthogonalLoop=1;jettySize=auto;html=1;exitX=0.5;exitY=1;exitDx=0;exitDy=0;" edge="1" parent="1" source="HRkGqnotARpjoitVVcCS-134" target="HRkGqnotARpjoitVVcCS-134">
          <mxGeometry relative="1" as="geometry" />
        </mxCell>
        <mxCell id="HRkGqnotARpjoitVVcCS-143" style="edgeStyle=orthogonalEdgeStyle;rounded=0;orthogonalLoop=1;jettySize=auto;html=1;entryX=0.83;entryY=0.979;entryDx=0;entryDy=0;entryPerimeter=0;" edge="1" parent="1" target="HRkGqnotARpjoitVVcCS-132">
          <mxGeometry relative="1" as="geometry">
            <mxPoint x="666.3749999999995" y="1607" as="sourcePoint" />
          </mxGeometry>
        </mxCell>
        <mxCell id="HRkGqnotARpjoitVVcCS-179" style="edgeStyle=orthogonalEdgeStyle;rounded=0;orthogonalLoop=1;jettySize=auto;html=1;entryX=0.115;entryY=1.029;entryDx=0;entryDy=0;entryPerimeter=0;" edge="1" parent="1" source="HRkGqnotARpjoitVVcCS-140" target="HRkGqnotARpjoitVVcCS-132">
          <mxGeometry relative="1" as="geometry" />
        </mxCell>
        <mxCell id="HRkGqnotARpjoitVVcCS-140" value="&lt;font style=&quot;font-size: 14px;&quot;&gt;ПО&lt;/font&gt;" style="text;html=1;strokeColor=none;fillColor=none;align=center;verticalAlign=middle;whiteSpace=wrap;rounded=0;" vertex="1" parent="1">
          <mxGeometry x="539.25" y="1614" width="83" height="30" as="geometry" />
        </mxCell>
        <mxCell id="HRkGqnotARpjoitVVcCS-148" value="&lt;span style=&quot;font-size: 14px;&quot;&gt;Вывод ошибки&lt;/span&gt;" style="rounded=1;whiteSpace=wrap;html=1;" vertex="1" parent="1">
          <mxGeometry x="530.5" y="1154" width="120" height="60" as="geometry" />
        </mxCell>
        <mxCell id="HRkGqnotARpjoitVVcCS-158" style="edgeStyle=orthogonalEdgeStyle;rounded=0;orthogonalLoop=1;jettySize=auto;html=1;entryX=0.851;entryY=0.04;entryDx=0;entryDy=0;entryPerimeter=0;" edge="1" parent="1" source="HRkGqnotARpjoitVVcCS-150" target="HRkGqnotARpjoitVVcCS-148">
          <mxGeometry relative="1" as="geometry" />
        </mxCell>
        <mxCell id="HRkGqnotARpjoitVVcCS-150" value="&lt;font style=&quot;font-size: 14px;&quot;&gt;Сообщение об ошибке&lt;/font&gt;" style="text;html=1;strokeColor=none;fillColor=none;align=center;verticalAlign=middle;whiteSpace=wrap;rounded=0;" vertex="1" parent="1">
          <mxGeometry x="581" y="1097" width="102" height="30" as="geometry" />
        </mxCell>
        <mxCell id="HRkGqnotARpjoitVVcCS-160" style="edgeStyle=orthogonalEdgeStyle;rounded=0;orthogonalLoop=1;jettySize=auto;html=1;entryX=0.14;entryY=0.005;entryDx=0;entryDy=0;entryPerimeter=0;" edge="1" parent="1" source="HRkGqnotARpjoitVVcCS-159" target="HRkGqnotARpjoitVVcCS-148">
          <mxGeometry relative="1" as="geometry" />
        </mxCell>
        <mxCell id="HRkGqnotARpjoitVVcCS-159" value="&lt;font style=&quot;font-size: 14px;&quot;&gt;ПО&lt;/font&gt;" style="text;html=1;strokeColor=none;fillColor=none;align=center;verticalAlign=middle;whiteSpace=wrap;rounded=0;" vertex="1" parent="1">
          <mxGeometry x="505" y="1094" width="83" height="30" as="geometry" />
        </mxCell>
        <mxCell id="HRkGqnotARpjoitVVcCS-165" value="&lt;font style=&quot;font-size: 14px;&quot;&gt;База данных&lt;/font&gt;" style="text;html=1;strokeColor=none;fillColor=none;align=center;verticalAlign=middle;whiteSpace=wrap;rounded=0;" vertex="1" parent="1">
          <mxGeometry x="683" y="1398" width="100.5" height="30" as="geometry" />
        </mxCell>
        <mxCell id="HRkGqnotARpjoitVVcCS-175" style="edgeStyle=orthogonalEdgeStyle;rounded=0;orthogonalLoop=1;jettySize=auto;html=1;entryX=0.25;entryY=1;entryDx=0;entryDy=0;" edge="1" parent="1" source="HRkGqnotARpjoitVVcCS-166" target="HRkGqnotARpjoitVVcCS-168">
          <mxGeometry relative="1" as="geometry" />
        </mxCell>
        <mxCell id="HRkGqnotARpjoitVVcCS-166" value="&lt;font style=&quot;font-size: 14px;&quot;&gt;Пользователь&lt;/font&gt;" style="text;html=1;strokeColor=none;fillColor=none;align=center;verticalAlign=middle;whiteSpace=wrap;rounded=0;" vertex="1" parent="1">
          <mxGeometry x="183" y="1575" width="102" height="30" as="geometry" />
        </mxCell>
        <mxCell id="HRkGqnotARpjoitVVcCS-174" style="edgeStyle=orthogonalEdgeStyle;rounded=0;orthogonalLoop=1;jettySize=auto;html=1;" edge="1" parent="1" source="HRkGqnotARpjoitVVcCS-168">
          <mxGeometry relative="1" as="geometry">
            <mxPoint x="568" y="1534" as="targetPoint" />
          </mxGeometry>
        </mxCell>
        <mxCell id="HRkGqnotARpjoitVVcCS-168" value="&lt;font style=&quot;font-size: 14px;&quot;&gt;Выбор действия&lt;/font&gt;" style="rounded=1;whiteSpace=wrap;html=1;" vertex="1" parent="1">
          <mxGeometry x="333" y="1504" width="120" height="60" as="geometry" />
        </mxCell>
        <mxCell id="HRkGqnotARpjoitVVcCS-171" style="edgeStyle=orthogonalEdgeStyle;rounded=0;orthogonalLoop=1;jettySize=auto;html=1;entryX=0.179;entryY=0.042;entryDx=0;entryDy=0;entryPerimeter=0;" edge="1" parent="1" source="HRkGqnotARpjoitVVcCS-170" target="HRkGqnotARpjoitVVcCS-168">
          <mxGeometry relative="1" as="geometry" />
        </mxCell>
        <mxCell id="HRkGqnotARpjoitVVcCS-170" value="&lt;font style=&quot;font-size: 14px;&quot;&gt;Сообщение об успехе&lt;/font&gt;" style="text;html=1;strokeColor=none;fillColor=none;align=center;verticalAlign=middle;whiteSpace=wrap;rounded=0;" vertex="1" parent="1">
          <mxGeometry x="292" y="1426" width="60" height="30" as="geometry" />
        </mxCell>
        <mxCell id="HRkGqnotARpjoitVVcCS-173" style="edgeStyle=orthogonalEdgeStyle;rounded=0;orthogonalLoop=1;jettySize=auto;html=1;" edge="1" parent="1" source="HRkGqnotARpjoitVVcCS-172" target="HRkGqnotARpjoitVVcCS-168">
          <mxGeometry relative="1" as="geometry" />
        </mxCell>
        <mxCell id="HRkGqnotARpjoitVVcCS-172" value="&lt;font style=&quot;font-size: 14px;&quot;&gt;ПО&lt;/font&gt;" style="text;html=1;strokeColor=none;fillColor=none;align=center;verticalAlign=middle;whiteSpace=wrap;rounded=0;" vertex="1" parent="1">
          <mxGeometry x="216" y="1519" width="83" height="30" as="geometry" />
        </mxCell>
        <mxCell id="HRkGqnotARpjoitVVcCS-177" value="&lt;font style=&quot;font-size: 14px;&quot;&gt;База данных&lt;/font&gt;" style="text;html=1;strokeColor=none;fillColor=none;align=center;verticalAlign=middle;whiteSpace=wrap;rounded=0;" vertex="1" parent="1">
          <mxGeometry x="632" y="1601" width="100.5" height="30" as="geometry" />
        </mxCell>
        <mxCell id="HRkGqnotARpjoitVVcCS-197" style="edgeStyle=orthogonalEdgeStyle;rounded=0;orthogonalLoop=1;jettySize=auto;html=1;entryX=0.5;entryY=0;entryDx=0;entryDy=0;" edge="1" parent="1" source="HRkGqnotARpjoitVVcCS-180" target="HRkGqnotARpjoitVVcCS-198">
          <mxGeometry relative="1" as="geometry">
            <mxPoint x="821" y="1664" as="targetPoint" />
          </mxGeometry>
        </mxCell>
        <mxCell id="HRkGqnotARpjoitVVcCS-180" value="&lt;span style=&quot;font-size: 14px;&quot;&gt;Обновление БД&lt;/span&gt;" style="rounded=1;whiteSpace=wrap;html=1;" vertex="1" parent="1">
          <mxGeometry x="761" y="1511" width="120" height="60" as="geometry" />
        </mxCell>
        <mxCell id="HRkGqnotARpjoitVVcCS-183" style="edgeStyle=orthogonalEdgeStyle;rounded=0;orthogonalLoop=1;jettySize=auto;html=1;entryX=0.75;entryY=0;entryDx=0;entryDy=0;" edge="1" parent="1" source="HRkGqnotARpjoitVVcCS-181" target="HRkGqnotARpjoitVVcCS-180">
          <mxGeometry relative="1" as="geometry">
            <mxPoint x="843" y="1508" as="targetPoint" />
          </mxGeometry>
        </mxCell>
        <mxCell id="HRkGqnotARpjoitVVcCS-181" value="&lt;font style=&quot;font-size: 14px;&quot;&gt;ПО&lt;/font&gt;" style="text;html=1;strokeColor=none;fillColor=none;align=center;verticalAlign=middle;whiteSpace=wrap;rounded=0;" vertex="1" parent="1">
          <mxGeometry x="809.0000000000001" y="1453" width="83" height="30" as="geometry" />
        </mxCell>
        <mxCell id="HRkGqnotARpjoitVVcCS-182" style="edgeStyle=orthogonalEdgeStyle;rounded=0;orthogonalLoop=1;jettySize=auto;html=1;exitX=0.5;exitY=1;exitDx=0;exitDy=0;" edge="1" parent="1" source="HRkGqnotARpjoitVVcCS-181" target="HRkGqnotARpjoitVVcCS-181">
          <mxGeometry relative="1" as="geometry" />
        </mxCell>
        <mxCell id="HRkGqnotARpjoitVVcCS-185" style="edgeStyle=orthogonalEdgeStyle;rounded=0;orthogonalLoop=1;jettySize=auto;html=1;" edge="1" parent="1" source="HRkGqnotARpjoitVVcCS-184" target="HRkGqnotARpjoitVVcCS-180">
          <mxGeometry relative="1" as="geometry" />
        </mxCell>
        <mxCell id="HRkGqnotARpjoitVVcCS-184" value="&lt;font style=&quot;font-size: 14px;&quot;&gt;Новые данные&lt;/font&gt;" style="text;html=1;strokeColor=none;fillColor=none;align=center;verticalAlign=middle;whiteSpace=wrap;rounded=0;" vertex="1" parent="1">
          <mxGeometry x="924.42" y="1526" width="100.5" height="30" as="geometry" />
        </mxCell>
        <mxCell id="HRkGqnotARpjoitVVcCS-188" style="edgeStyle=orthogonalEdgeStyle;rounded=0;orthogonalLoop=1;jettySize=auto;html=1;entryX=0.75;entryY=1;entryDx=0;entryDy=0;" edge="1" parent="1" source="HRkGqnotARpjoitVVcCS-186" target="HRkGqnotARpjoitVVcCS-168">
          <mxGeometry relative="1" as="geometry">
            <Array as="points">
              <mxPoint x="423" y="1707" />
            </Array>
          </mxGeometry>
        </mxCell>
        <mxCell id="HRkGqnotARpjoitVVcCS-186" value="&lt;span style=&quot;font-size: 14px;&quot;&gt;Вывод ошибки&lt;/span&gt;" style="rounded=1;whiteSpace=wrap;html=1;" vertex="1" parent="1">
          <mxGeometry x="445" y="1677" width="120" height="60" as="geometry" />
        </mxCell>
        <mxCell id="HRkGqnotARpjoitVVcCS-192" style="edgeStyle=orthogonalEdgeStyle;rounded=0;orthogonalLoop=1;jettySize=auto;html=1;entryX=0.25;entryY=1;entryDx=0;entryDy=0;" edge="1" parent="1" source="HRkGqnotARpjoitVVcCS-189" target="HRkGqnotARpjoitVVcCS-186">
          <mxGeometry relative="1" as="geometry" />
        </mxCell>
        <mxCell id="HRkGqnotARpjoitVVcCS-189" value="&lt;font style=&quot;font-size: 14px;&quot;&gt;Сообщение об ошибке&lt;/font&gt;" style="text;html=1;strokeColor=none;fillColor=none;align=center;verticalAlign=middle;whiteSpace=wrap;rounded=0;" vertex="1" parent="1">
          <mxGeometry x="424" y="1784" width="102" height="30" as="geometry" />
        </mxCell>
        <mxCell id="HRkGqnotARpjoitVVcCS-195" style="edgeStyle=orthogonalEdgeStyle;rounded=0;orthogonalLoop=1;jettySize=auto;html=1;entryX=0.75;entryY=1;entryDx=0;entryDy=0;" edge="1" parent="1" source="HRkGqnotARpjoitVVcCS-194" target="HRkGqnotARpjoitVVcCS-186">
          <mxGeometry relative="1" as="geometry" />
        </mxCell>
        <mxCell id="HRkGqnotARpjoitVVcCS-194" value="&lt;font style=&quot;font-size: 14px;&quot;&gt;ПО&lt;/font&gt;" style="text;html=1;strokeColor=none;fillColor=none;align=center;verticalAlign=middle;whiteSpace=wrap;rounded=0;" vertex="1" parent="1">
          <mxGeometry x="526" y="1782" width="83" height="30" as="geometry" />
        </mxCell>
        <mxCell id="HRkGqnotARpjoitVVcCS-206" style="edgeStyle=orthogonalEdgeStyle;rounded=0;orthogonalLoop=1;jettySize=auto;html=1;entryX=1;entryY=0.5;entryDx=0;entryDy=0;" edge="1" parent="1" source="HRkGqnotARpjoitVVcCS-198" target="HRkGqnotARpjoitVVcCS-186">
          <mxGeometry relative="1" as="geometry" />
        </mxCell>
        <mxCell id="HRkGqnotARpjoitVVcCS-207" style="edgeStyle=orthogonalEdgeStyle;rounded=0;orthogonalLoop=1;jettySize=auto;html=1;entryX=1;entryY=0.5;entryDx=0;entryDy=0;" edge="1" parent="1" source="HRkGqnotARpjoitVVcCS-198" target="HRkGqnotARpjoitVVcCS-208">
          <mxGeometry relative="1" as="geometry">
            <mxPoint x="821" y="1787.75" as="targetPoint" />
          </mxGeometry>
        </mxCell>
        <mxCell id="HRkGqnotARpjoitVVcCS-198" value="&lt;font style=&quot;font-size: 14px;&quot;&gt;Подключение к серверу&lt;/font&gt;" style="rounded=1;whiteSpace=wrap;html=1;" vertex="1" parent="1">
          <mxGeometry x="761" y="1677" width="120" height="60" as="geometry" />
        </mxCell>
        <mxCell id="HRkGqnotARpjoitVVcCS-201" style="edgeStyle=orthogonalEdgeStyle;rounded=0;orthogonalLoop=1;jettySize=auto;html=1;entryX=1;entryY=0.75;entryDx=0;entryDy=0;" edge="1" parent="1" source="HRkGqnotARpjoitVVcCS-200" target="HRkGqnotARpjoitVVcCS-198">
          <mxGeometry relative="1" as="geometry" />
        </mxCell>
        <mxCell id="HRkGqnotARpjoitVVcCS-200" value="&lt;font style=&quot;font-size: 14px;&quot;&gt;База данных&lt;/font&gt;" style="text;html=1;strokeColor=none;fillColor=none;align=center;verticalAlign=middle;whiteSpace=wrap;rounded=0;" vertex="1" parent="1">
          <mxGeometry x="944.6700000000001" y="1707" width="100.5" height="30" as="geometry" />
        </mxCell>
        <mxCell id="HRkGqnotARpjoitVVcCS-203" style="edgeStyle=orthogonalEdgeStyle;rounded=0;orthogonalLoop=1;jettySize=auto;html=1;" edge="1" parent="1" source="HRkGqnotARpjoitVVcCS-202" target="HRkGqnotARpjoitVVcCS-198">
          <mxGeometry relative="1" as="geometry" />
        </mxCell>
        <mxCell id="HRkGqnotARpjoitVVcCS-202" value="&lt;font style=&quot;font-size: 14px;&quot;&gt;Запрос&lt;/font&gt;" style="text;html=1;strokeColor=none;fillColor=none;align=center;verticalAlign=middle;whiteSpace=wrap;rounded=0;" vertex="1" parent="1">
          <mxGeometry x="944.6700000000001" y="1670" width="83" height="30" as="geometry" />
        </mxCell>
        <mxCell id="HRkGqnotARpjoitVVcCS-205" style="edgeStyle=orthogonalEdgeStyle;rounded=0;orthogonalLoop=1;jettySize=auto;html=1;entryX=0.925;entryY=0.033;entryDx=0;entryDy=0;entryPerimeter=0;" edge="1" parent="1" source="HRkGqnotARpjoitVVcCS-204" target="HRkGqnotARpjoitVVcCS-198">
          <mxGeometry relative="1" as="geometry" />
        </mxCell>
        <mxCell id="HRkGqnotARpjoitVVcCS-204" value="&lt;font style=&quot;font-size: 14px;&quot;&gt;ПО&lt;/font&gt;" style="text;html=1;strokeColor=none;fillColor=none;align=center;verticalAlign=middle;whiteSpace=wrap;rounded=0;" vertex="1" parent="1">
          <mxGeometry x="831.0000000000001" y="1610" width="83" height="30" as="geometry" />
        </mxCell>
        <mxCell id="HRkGqnotARpjoitVVcCS-209" style="edgeStyle=orthogonalEdgeStyle;rounded=0;orthogonalLoop=1;jettySize=auto;html=1;entryX=0.5;entryY=1;entryDx=0;entryDy=0;" edge="1" parent="1" source="HRkGqnotARpjoitVVcCS-208" target="HRkGqnotARpjoitVVcCS-168">
          <mxGeometry relative="1" as="geometry" />
        </mxCell>
        <mxCell id="HRkGqnotARpjoitVVcCS-208" value="&lt;span style=&quot;font-size: 14px;&quot;&gt;Обновление данных на портале&lt;/span&gt;" style="rounded=1;whiteSpace=wrap;html=1;" vertex="1" parent="1">
          <mxGeometry x="675" y="1835" width="120" height="60" as="geometry" />
        </mxCell>
        <mxCell id="HRkGqnotARpjoitVVcCS-211" style="edgeStyle=orthogonalEdgeStyle;rounded=0;orthogonalLoop=1;jettySize=auto;html=1;" edge="1" parent="1" source="HRkGqnotARpjoitVVcCS-210" target="HRkGqnotARpjoitVVcCS-208">
          <mxGeometry relative="1" as="geometry" />
        </mxCell>
        <mxCell id="HRkGqnotARpjoitVVcCS-210" value="&lt;font style=&quot;font-size: 14px;&quot;&gt;ПО&lt;/font&gt;" style="text;html=1;strokeColor=none;fillColor=none;align=center;verticalAlign=middle;whiteSpace=wrap;rounded=0;" vertex="1" parent="1">
          <mxGeometry x="693.5" y="1761" width="83" height="30" as="geometry" />
        </mxCell>
        <mxCell id="HRkGqnotARpjoitVVcCS-213" style="edgeStyle=orthogonalEdgeStyle;rounded=0;orthogonalLoop=1;jettySize=auto;html=1;entryX=0;entryY=0.25;entryDx=0;entryDy=0;" edge="1" parent="1" source="HRkGqnotARpjoitVVcCS-212" target="HRkGqnotARpjoitVVcCS-208">
          <mxGeometry relative="1" as="geometry" />
        </mxCell>
        <mxCell id="HRkGqnotARpjoitVVcCS-212" value="&lt;font style=&quot;font-size: 14px;&quot;&gt;База данных&lt;/font&gt;" style="text;html=1;strokeColor=none;fillColor=none;align=center;verticalAlign=middle;whiteSpace=wrap;rounded=0;" vertex="1" parent="1">
          <mxGeometry x="603" y="1768" width="100.5" height="30" as="geometry" />
        </mxCell>
        <mxCell id="HRkGqnotARpjoitVVcCS-218" value="Преденденитров&lt;br&gt;" style="text;html=1;strokeColor=none;fillColor=none;align=center;verticalAlign=middle;whiteSpace=wrap;rounded=0;" vertex="1" parent="1">
          <mxGeometry x="-2351" y="1178" width="60" height="30" as="geometry" />
        </mxCell>
        <mxCell id="HRkGqnotARpjoitVVcCS-219" value="&lt;font style=&quot;font-size: 20px;&quot;&gt;ERD&lt;/font&gt;" style="text;html=1;strokeColor=none;fillColor=none;align=center;verticalAlign=middle;whiteSpace=wrap;rounded=0;" vertex="1" parent="1">
          <mxGeometry x="-1265" y="1020" width="60" height="30" as="geometry" />
        </mxCell>
        <mxCell id="HRkGqnotARpjoitVVcCS-236" style="edgeStyle=orthogonalEdgeStyle;rounded=0;orthogonalLoop=1;jettySize=auto;html=1;entryX=0.5;entryY=0;entryDx=0;entryDy=0;" edge="1" parent="1" source="HRkGqnotARpjoitVVcCS-221" target="HRkGqnotARpjoitVVcCS-237">
          <mxGeometry relative="1" as="geometry">
            <mxPoint x="-1227" y="1716" as="targetPoint" />
          </mxGeometry>
        </mxCell>
        <mxCell id="HRkGqnotARpjoitVVcCS-280" style="edgeStyle=orthogonalEdgeStyle;rounded=0;orthogonalLoop=1;jettySize=auto;html=1;exitX=0;exitY=0.5;exitDx=0;exitDy=0;" edge="1" parent="1" source="HRkGqnotARpjoitVVcCS-221" target="HRkGqnotARpjoitVVcCS-279">
          <mxGeometry relative="1" as="geometry" />
        </mxCell>
        <mxCell id="HRkGqnotARpjoitVVcCS-221" value="&lt;font style=&quot;font-size: 14px;&quot;&gt;Обработка&lt;br&gt;&amp;nbsp;авторизации&lt;/font&gt;" style="shape=rhombus;perimeter=rhombusPerimeter;whiteSpace=wrap;html=1;align=center;" vertex="1" parent="1">
          <mxGeometry x="-1314" y="1578" width="174" height="84" as="geometry" />
        </mxCell>
        <mxCell id="HRkGqnotARpjoitVVcCS-264" style="edgeStyle=orthogonalEdgeStyle;rounded=0;orthogonalLoop=1;jettySize=auto;html=1;entryX=0.5;entryY=0;entryDx=0;entryDy=0;" edge="1" parent="1" source="HRkGqnotARpjoitVVcCS-222" target="HRkGqnotARpjoitVVcCS-263">
          <mxGeometry relative="1" as="geometry" />
        </mxCell>
        <mxCell id="HRkGqnotARpjoitVVcCS-222" value="&lt;font style=&quot;font-size: 14px;&quot;&gt;Вход на портал&lt;/font&gt;" style="whiteSpace=wrap;html=1;align=center;" vertex="1" parent="1">
          <mxGeometry x="-1289" y="1185" width="124" height="60" as="geometry" />
        </mxCell>
        <mxCell id="HRkGqnotARpjoitVVcCS-243" style="edgeStyle=orthogonalEdgeStyle;rounded=0;orthogonalLoop=1;jettySize=auto;html=1;entryX=0.5;entryY=0;entryDx=0;entryDy=0;exitX=0.5;exitY=1;exitDx=0;exitDy=0;" edge="1" parent="1" source="HRkGqnotARpjoitVVcCS-285" target="HRkGqnotARpjoitVVcCS-240">
          <mxGeometry relative="1" as="geometry">
            <mxPoint x="-847" y="1650" as="sourcePoint" />
          </mxGeometry>
        </mxCell>
        <mxCell id="HRkGqnotARpjoitVVcCS-260" style="edgeStyle=orthogonalEdgeStyle;rounded=0;orthogonalLoop=1;jettySize=auto;html=1;exitX=0.5;exitY=1;exitDx=0;exitDy=0;entryX=0.5;entryY=0;entryDx=0;entryDy=0;" edge="1" parent="1" source="HRkGqnotARpjoitVVcCS-237" target="HRkGqnotARpjoitVVcCS-259">
          <mxGeometry relative="1" as="geometry" />
        </mxCell>
        <mxCell id="HRkGqnotARpjoitVVcCS-237" value="&lt;span style=&quot;font-size: 14px;&quot;&gt;Корректные данные&lt;/span&gt;" style="whiteSpace=wrap;html=1;align=center;" vertex="1" parent="1">
          <mxGeometry x="-1289" y="1715" width="124" height="60" as="geometry" />
        </mxCell>
        <mxCell id="HRkGqnotARpjoitVVcCS-242" style="edgeStyle=orthogonalEdgeStyle;rounded=0;orthogonalLoop=1;jettySize=auto;html=1;entryX=1;entryY=0.5;entryDx=0;entryDy=0;exitX=1;exitY=0.5;exitDx=0;exitDy=0;" edge="1" parent="1" source="HRkGqnotARpjoitVVcCS-240" target="HRkGqnotARpjoitVVcCS-285">
          <mxGeometry relative="1" as="geometry">
            <mxPoint x="-785" y="1620" as="targetPoint" />
          </mxGeometry>
        </mxCell>
        <mxCell id="HRkGqnotARpjoitVVcCS-253" style="edgeStyle=orthogonalEdgeStyle;rounded=0;orthogonalLoop=1;jettySize=auto;html=1;exitX=1;exitY=1;exitDx=0;exitDy=0;entryX=1;entryY=0.5;entryDx=0;entryDy=0;" edge="1" parent="1" source="HRkGqnotARpjoitVVcCS-240" target="HRkGqnotARpjoitVVcCS-252">
          <mxGeometry relative="1" as="geometry">
            <Array as="points">
              <mxPoint x="-908" y="1976" />
              <mxPoint x="-908" y="2197" />
            </Array>
          </mxGeometry>
        </mxCell>
        <mxCell id="HRkGqnotARpjoitVVcCS-277" style="edgeStyle=orthogonalEdgeStyle;rounded=0;orthogonalLoop=1;jettySize=auto;html=1;entryX=1;entryY=0.5;entryDx=0;entryDy=0;" edge="1" parent="1" source="HRkGqnotARpjoitVVcCS-240" target="HRkGqnotARpjoitVVcCS-275">
          <mxGeometry relative="1" as="geometry">
            <Array as="points">
              <mxPoint x="-1008" y="2092" />
            </Array>
          </mxGeometry>
        </mxCell>
        <mxCell id="HRkGqnotARpjoitVVcCS-240" value="&lt;font style=&quot;font-size: 14px;&quot;&gt;Редактирование &lt;br&gt;данных&lt;/font&gt;" style="shape=rhombus;perimeter=rhombusPerimeter;whiteSpace=wrap;html=1;align=center;" vertex="1" parent="1">
          <mxGeometry x="-1050" y="1913" width="174" height="84" as="geometry" />
        </mxCell>
        <mxCell id="HRkGqnotARpjoitVVcCS-256" style="edgeStyle=orthogonalEdgeStyle;rounded=0;orthogonalLoop=1;jettySize=auto;html=1;entryX=0.5;entryY=0;entryDx=0;entryDy=0;" edge="1" parent="1" source="HRkGqnotARpjoitVVcCS-252" target="HRkGqnotARpjoitVVcCS-257">
          <mxGeometry relative="1" as="geometry">
            <mxPoint x="-1225" y="2309" as="targetPoint" />
          </mxGeometry>
        </mxCell>
        <mxCell id="HRkGqnotARpjoitVVcCS-273" style="edgeStyle=orthogonalEdgeStyle;rounded=0;orthogonalLoop=1;jettySize=auto;html=1;entryX=0.5;entryY=1;entryDx=0;entryDy=0;" edge="1" parent="1" source="HRkGqnotARpjoitVVcCS-252" target="HRkGqnotARpjoitVVcCS-270">
          <mxGeometry relative="1" as="geometry" />
        </mxCell>
        <mxCell id="HRkGqnotARpjoitVVcCS-252" value="Подключение к&amp;nbsp;&lt;br style=&quot;border-color: var(--border-color); font-size: 14px;&quot;&gt;&lt;span style=&quot;font-size: 14px;&quot;&gt;серверу&lt;/span&gt;" style="shape=rhombus;perimeter=rhombusPerimeter;whiteSpace=wrap;html=1;align=center;" vertex="1" parent="1">
          <mxGeometry x="-1312" y="2155" width="174" height="84" as="geometry" />
        </mxCell>
        <mxCell id="HRkGqnotARpjoitVVcCS-258" style="edgeStyle=orthogonalEdgeStyle;rounded=0;orthogonalLoop=1;jettySize=auto;html=1;exitX=0;exitY=0.5;exitDx=0;exitDy=0;" edge="1" parent="1" source="HRkGqnotARpjoitVVcCS-257" target="HRkGqnotARpjoitVVcCS-259">
          <mxGeometry relative="1" as="geometry">
            <mxPoint x="-1258" y="1828" as="targetPoint" />
            <Array as="points">
              <mxPoint x="-1549" y="2316" />
              <mxPoint x="-1549" y="1801" />
              <mxPoint x="-1258" y="1801" />
            </Array>
          </mxGeometry>
        </mxCell>
        <mxCell id="HRkGqnotARpjoitVVcCS-257" value="&lt;font style=&quot;font-size: 14px;&quot;&gt;Обновление данных на портале&lt;/font&gt;" style="whiteSpace=wrap;html=1;align=center;" vertex="1" parent="1">
          <mxGeometry x="-1287" y="2289" width="124" height="60" as="geometry" />
        </mxCell>
        <mxCell id="HRkGqnotARpjoitVVcCS-262" style="edgeStyle=orthogonalEdgeStyle;rounded=0;orthogonalLoop=1;jettySize=auto;html=1;entryX=0;entryY=0.5;entryDx=0;entryDy=0;" edge="1" parent="1" source="HRkGqnotARpjoitVVcCS-259" target="HRkGqnotARpjoitVVcCS-240">
          <mxGeometry relative="1" as="geometry" />
        </mxCell>
        <mxCell id="HRkGqnotARpjoitVVcCS-259" value="&lt;span style=&quot;font-size: 14px;&quot;&gt;Выбор действия&lt;/span&gt;" style="shape=rhombus;perimeter=rhombusPerimeter;whiteSpace=wrap;html=1;align=center;" vertex="1" parent="1">
          <mxGeometry x="-1314" y="1913" width="174" height="84" as="geometry" />
        </mxCell>
        <mxCell id="HRkGqnotARpjoitVVcCS-267" style="edgeStyle=orthogonalEdgeStyle;rounded=0;orthogonalLoop=1;jettySize=auto;html=1;entryX=0.5;entryY=0;entryDx=0;entryDy=0;" edge="1" parent="1" source="HRkGqnotARpjoitVVcCS-263" target="HRkGqnotARpjoitVVcCS-266">
          <mxGeometry relative="1" as="geometry" />
        </mxCell>
        <mxCell id="HRkGqnotARpjoitVVcCS-263" value="&lt;font style=&quot;font-size: 14px;&quot;&gt;Авторизация в&lt;br&gt;&amp;nbsp;панели&lt;br&gt;&amp;nbsp;администратора&lt;/font&gt;" style="shape=rhombus;perimeter=rhombusPerimeter;whiteSpace=wrap;html=1;align=center;" vertex="1" parent="1">
          <mxGeometry x="-1314" y="1336" width="174" height="84" as="geometry" />
        </mxCell>
        <mxCell id="HRkGqnotARpjoitVVcCS-268" style="edgeStyle=orthogonalEdgeStyle;rounded=0;orthogonalLoop=1;jettySize=auto;html=1;" edge="1" parent="1" source="HRkGqnotARpjoitVVcCS-266" target="HRkGqnotARpjoitVVcCS-221">
          <mxGeometry relative="1" as="geometry" />
        </mxCell>
        <mxCell id="HRkGqnotARpjoitVVcCS-266" value="&lt;font style=&quot;font-size: 14px;&quot;&gt;Учетные данные&lt;/font&gt;" style="whiteSpace=wrap;html=1;align=center;" vertex="1" parent="1">
          <mxGeometry x="-1289" y="1453" width="124" height="60" as="geometry" />
        </mxCell>
        <mxCell id="HRkGqnotARpjoitVVcCS-274" style="edgeStyle=orthogonalEdgeStyle;rounded=0;orthogonalLoop=1;jettySize=auto;html=1;entryX=0;entryY=0.5;entryDx=0;entryDy=0;" edge="1" parent="1" source="HRkGqnotARpjoitVVcCS-270" target="HRkGqnotARpjoitVVcCS-259">
          <mxGeometry relative="1" as="geometry" />
        </mxCell>
        <mxCell id="HRkGqnotARpjoitVVcCS-270" value="&lt;font style=&quot;font-size: 14px;&quot;&gt;Сообщение об ошибке&lt;/font&gt;" style="shape=rhombus;perimeter=rhombusPerimeter;whiteSpace=wrap;html=1;align=center;" vertex="1" parent="1">
          <mxGeometry x="-1535" y="1913" width="174" height="84" as="geometry" />
        </mxCell>
        <mxCell id="HRkGqnotARpjoitVVcCS-276" style="edgeStyle=orthogonalEdgeStyle;rounded=0;orthogonalLoop=1;jettySize=auto;html=1;entryX=0.5;entryY=1;entryDx=0;entryDy=0;" edge="1" parent="1" source="HRkGqnotARpjoitVVcCS-275" target="HRkGqnotARpjoitVVcCS-259">
          <mxGeometry relative="1" as="geometry" />
        </mxCell>
        <mxCell id="HRkGqnotARpjoitVVcCS-275" value="&lt;font style=&quot;font-size: 14px;&quot;&gt;Сообщение об ошибке&lt;/font&gt;" style="shape=rhombus;perimeter=rhombusPerimeter;whiteSpace=wrap;html=1;align=center;" vertex="1" parent="1">
          <mxGeometry x="-1314" y="2050" width="174" height="84" as="geometry" />
        </mxCell>
        <mxCell id="HRkGqnotARpjoitVVcCS-282" style="edgeStyle=orthogonalEdgeStyle;rounded=0;orthogonalLoop=1;jettySize=auto;html=1;entryX=0;entryY=0.5;entryDx=0;entryDy=0;" edge="1" parent="1" source="HRkGqnotARpjoitVVcCS-278" target="HRkGqnotARpjoitVVcCS-222">
          <mxGeometry relative="1" as="geometry">
            <Array as="points">
              <mxPoint x="-1431" y="1215" />
            </Array>
          </mxGeometry>
        </mxCell>
        <mxCell id="HRkGqnotARpjoitVVcCS-278" value="&lt;font style=&quot;font-size: 14px;&quot;&gt;Сообщение об ошибке&lt;/font&gt;" style="shape=rhombus;perimeter=rhombusPerimeter;whiteSpace=wrap;html=1;align=center;" vertex="1" parent="1">
          <mxGeometry x="-1518" y="1442" width="174" height="84" as="geometry" />
        </mxCell>
        <mxCell id="HRkGqnotARpjoitVVcCS-281" style="edgeStyle=orthogonalEdgeStyle;rounded=0;orthogonalLoop=1;jettySize=auto;html=1;entryX=0.5;entryY=1;entryDx=0;entryDy=0;" edge="1" parent="1" source="HRkGqnotARpjoitVVcCS-279" target="HRkGqnotARpjoitVVcCS-278">
          <mxGeometry relative="1" as="geometry" />
        </mxCell>
        <mxCell id="HRkGqnotARpjoitVVcCS-279" value="&lt;span style=&quot;font-size: 14px;&quot;&gt;Некорректные данные&lt;/span&gt;" style="whiteSpace=wrap;html=1;align=center;" vertex="1" parent="1">
          <mxGeometry x="-1493" y="1590" width="124" height="60" as="geometry" />
        </mxCell>
        <mxCell id="HRkGqnotARpjoitVVcCS-284" value="" style="edgeStyle=orthogonalEdgeStyle;rounded=0;orthogonalLoop=1;jettySize=auto;html=1;exitX=0;exitY=0.5;exitDx=0;exitDy=0;" edge="1" parent="1" source="HRkGqnotARpjoitVVcCS-285" target="HRkGqnotARpjoitVVcCS-283">
          <mxGeometry relative="1" as="geometry">
            <mxPoint x="-909" y="1620" as="sourcePoint" />
            <mxPoint x="-1140" y="1620" as="targetPoint" />
          </mxGeometry>
        </mxCell>
        <mxCell id="HRkGqnotARpjoitVVcCS-287" style="edgeStyle=orthogonalEdgeStyle;rounded=0;orthogonalLoop=1;jettySize=auto;html=1;entryX=1;entryY=0.5;entryDx=0;entryDy=0;" edge="1" parent="1" source="HRkGqnotARpjoitVVcCS-283" target="HRkGqnotARpjoitVVcCS-221">
          <mxGeometry relative="1" as="geometry" />
        </mxCell>
        <mxCell id="HRkGqnotARpjoitVVcCS-283" value="&lt;span style=&quot;font-size: 14px;&quot;&gt;Данные для авторизации&lt;/span&gt;" style="whiteSpace=wrap;html=1;align=center;" vertex="1" parent="1">
          <mxGeometry x="-1060" y="1590" width="124" height="60" as="geometry" />
        </mxCell>
        <mxCell id="HRkGqnotARpjoitVVcCS-285" value="&lt;font style=&quot;font-size: 14px;&quot;&gt;Получение&lt;br&gt;&amp;nbsp;данных из БД&lt;/font&gt;" style="shape=rhombus;perimeter=rhombusPerimeter;whiteSpace=wrap;html=1;align=center;" vertex="1" parent="1">
          <mxGeometry x="-1050" y="1722" width="174" height="84" as="geometry" />
        </mxCell>
        <mxCell id="HRkGqnotARpjoitVVcCS-288" value="Администратор" style="shape=umlActor;verticalLabelPosition=bottom;verticalAlign=top;html=1;outlineConnect=0;" vertex="1" parent="1">
          <mxGeometry x="-2946" y="1408" width="30" height="60" as="geometry" />
        </mxCell>
        <mxCell id="HRkGqnotARpjoitVVcCS-295" value="include" style="edgeStyle=orthogonalEdgeStyle;rounded=0;orthogonalLoop=1;jettySize=auto;html=1;dashed=1;entryX=0.5;entryY=0;entryDx=0;entryDy=0;" edge="1" parent="1" source="HRkGqnotARpjoitVVcCS-290" target="HRkGqnotARpjoitVVcCS-296">
          <mxGeometry relative="1" as="geometry">
            <mxPoint x="-2549" y="1519" as="targetPoint" />
          </mxGeometry>
        </mxCell>
        <mxCell id="HRkGqnotARpjoitVVcCS-290" value="Вход на портал" style="ellipse;whiteSpace=wrap;html=1;" vertex="1" parent="1">
          <mxGeometry x="-2609" y="1398" width="120" height="80" as="geometry" />
        </mxCell>
        <mxCell id="HRkGqnotARpjoitVVcCS-293" value="" style="endArrow=none;html=1;rounded=0;exitX=0.5;exitY=0.5;exitDx=0;exitDy=0;exitPerimeter=0;entryX=0;entryY=0.5;entryDx=0;entryDy=0;" edge="1" parent="1" source="HRkGqnotARpjoitVVcCS-288" target="HRkGqnotARpjoitVVcCS-290">
          <mxGeometry width="50" height="50" relative="1" as="geometry">
            <mxPoint x="-2477" y="1534" as="sourcePoint" />
            <mxPoint x="-2427" y="1484" as="targetPoint" />
          </mxGeometry>
        </mxCell>
        <mxCell id="HRkGqnotARpjoitVVcCS-296" value="Авторизация в панели администратора" style="ellipse;whiteSpace=wrap;html=1;" vertex="1" parent="1">
          <mxGeometry x="-2609" y="1525" width="120" height="80" as="geometry" />
        </mxCell>
        <mxCell id="HRkGqnotARpjoitVVcCS-303" value="include" style="edgeStyle=orthogonalEdgeStyle;rounded=0;orthogonalLoop=1;jettySize=auto;html=1;entryX=0.5;entryY=0;entryDx=0;entryDy=0;dashed=1;" edge="1" parent="1" source="HRkGqnotARpjoitVVcCS-297" target="HRkGqnotARpjoitVVcCS-304">
          <mxGeometry x="0.0119" relative="1" as="geometry">
            <mxPoint x="-2752.826086956522" y="1759.521739130435" as="targetPoint" />
            <mxPoint as="offset" />
          </mxGeometry>
        </mxCell>
        <mxCell id="HRkGqnotARpjoitVVcCS-311" style="edgeStyle=orthogonalEdgeStyle;rounded=0;orthogonalLoop=1;jettySize=auto;html=1;dashed=1;" edge="1" parent="1" source="HRkGqnotARpjoitVVcCS-297" target="HRkGqnotARpjoitVVcCS-307">
          <mxGeometry relative="1" as="geometry" />
        </mxCell>
        <mxCell id="HRkGqnotARpjoitVVcCS-315" value="include" style="edgeLabel;html=1;align=center;verticalAlign=middle;resizable=0;points=[];" vertex="1" connectable="0" parent="HRkGqnotARpjoitVVcCS-311">
          <mxGeometry x="-0.3625" y="2" relative="1" as="geometry">
            <mxPoint x="-1" as="offset" />
          </mxGeometry>
        </mxCell>
        <mxCell id="HRkGqnotARpjoitVVcCS-312" style="edgeStyle=orthogonalEdgeStyle;rounded=0;orthogonalLoop=1;jettySize=auto;html=1;exitX=1;exitY=1;exitDx=0;exitDy=0;entryX=0.5;entryY=0;entryDx=0;entryDy=0;dashed=1;" edge="1" parent="1" source="HRkGqnotARpjoitVVcCS-297" target="HRkGqnotARpjoitVVcCS-308">
          <mxGeometry relative="1" as="geometry">
            <Array as="points">
              <mxPoint x="-2507" y="1758" />
              <mxPoint x="-2447" y="1758" />
            </Array>
          </mxGeometry>
        </mxCell>
        <mxCell id="HRkGqnotARpjoitVVcCS-316" value="include" style="edgeLabel;html=1;align=center;verticalAlign=middle;resizable=0;points=[];" vertex="1" connectable="0" parent="HRkGqnotARpjoitVVcCS-312">
          <mxGeometry x="0.2999" y="1" relative="1" as="geometry">
            <mxPoint as="offset" />
          </mxGeometry>
        </mxCell>
        <mxCell id="HRkGqnotARpjoitVVcCS-313" style="edgeStyle=orthogonalEdgeStyle;rounded=0;orthogonalLoop=1;jettySize=auto;html=1;exitX=1;exitY=0.5;exitDx=0;exitDy=0;dashed=1;" edge="1" parent="1" source="HRkGqnotARpjoitVVcCS-297" target="HRkGqnotARpjoitVVcCS-309">
          <mxGeometry relative="1" as="geometry" />
        </mxCell>
        <mxCell id="HRkGqnotARpjoitVVcCS-317" value="include" style="edgeLabel;html=1;align=center;verticalAlign=middle;resizable=0;points=[];" vertex="1" connectable="0" parent="HRkGqnotARpjoitVVcCS-313">
          <mxGeometry x="-0.2073" y="3" relative="1" as="geometry">
            <mxPoint x="1" as="offset" />
          </mxGeometry>
        </mxCell>
        <mxCell id="HRkGqnotARpjoitVVcCS-314" style="edgeStyle=orthogonalEdgeStyle;rounded=0;orthogonalLoop=1;jettySize=auto;html=1;exitX=1;exitY=0;exitDx=0;exitDy=0;entryX=0.5;entryY=0;entryDx=0;entryDy=0;dashed=1;" edge="1" parent="1" source="HRkGqnotARpjoitVVcCS-297" target="HRkGqnotARpjoitVVcCS-310">
          <mxGeometry relative="1" as="geometry" />
        </mxCell>
        <mxCell id="HRkGqnotARpjoitVVcCS-318" value="include" style="edgeLabel;html=1;align=center;verticalAlign=middle;resizable=0;points=[];" vertex="1" connectable="0" parent="HRkGqnotARpjoitVVcCS-314">
          <mxGeometry x="0.2446" relative="1" as="geometry">
            <mxPoint as="offset" />
          </mxGeometry>
        </mxCell>
        <mxCell id="HRkGqnotARpjoitVVcCS-297" value="Выбор действия" style="ellipse;whiteSpace=wrap;html=1;" vertex="1" parent="1">
          <mxGeometry x="-2609" y="1663" width="120" height="80" as="geometry" />
        </mxCell>
        <mxCell id="HRkGqnotARpjoitVVcCS-298" value="include" style="edgeStyle=orthogonalEdgeStyle;rounded=0;orthogonalLoop=1;jettySize=auto;html=1;dashed=1;entryX=0.5;entryY=0;entryDx=0;entryDy=0;exitX=0.5;exitY=1;exitDx=0;exitDy=0;" edge="1" parent="1" source="HRkGqnotARpjoitVVcCS-296" target="HRkGqnotARpjoitVVcCS-297">
          <mxGeometry relative="1" as="geometry">
            <mxPoint x="-2543" y="1657" as="targetPoint" />
            <mxPoint x="-2543" y="1610" as="sourcePoint" />
          </mxGeometry>
        </mxCell>
        <mxCell id="HRkGqnotARpjoitVVcCS-300" value="extend" style="edgeStyle=orthogonalEdgeStyle;rounded=0;orthogonalLoop=1;jettySize=auto;html=1;dashed=1;" edge="1" parent="1" source="HRkGqnotARpjoitVVcCS-299" target="HRkGqnotARpjoitVVcCS-296">
          <mxGeometry relative="1" as="geometry" />
        </mxCell>
        <mxCell id="HRkGqnotARpjoitVVcCS-301" style="edgeStyle=orthogonalEdgeStyle;rounded=0;orthogonalLoop=1;jettySize=auto;html=1;dashed=1;" edge="1" parent="1" source="HRkGqnotARpjoitVVcCS-299" target="HRkGqnotARpjoitVVcCS-290">
          <mxGeometry relative="1" as="geometry">
            <Array as="points">
              <mxPoint x="-2355" y="1438" />
            </Array>
          </mxGeometry>
        </mxCell>
        <mxCell id="HRkGqnotARpjoitVVcCS-302" value="include" style="edgeLabel;html=1;align=center;verticalAlign=middle;resizable=0;points=[];" vertex="1" connectable="0" parent="HRkGqnotARpjoitVVcCS-301">
          <mxGeometry x="0.2796" y="-1" relative="1" as="geometry">
            <mxPoint as="offset" />
          </mxGeometry>
        </mxCell>
        <mxCell id="HRkGqnotARpjoitVVcCS-299" value="Вывод ошибки" style="ellipse;whiteSpace=wrap;html=1;" vertex="1" parent="1">
          <mxGeometry x="-2411" y="1525" width="120" height="80" as="geometry" />
        </mxCell>
        <mxCell id="HRkGqnotARpjoitVVcCS-325" value="extend" style="edgeStyle=orthogonalEdgeStyle;rounded=0;orthogonalLoop=1;jettySize=auto;html=1;entryX=0.625;entryY=0.974;entryDx=0;entryDy=0;dashed=1;entryPerimeter=0;exitX=0;exitY=0.5;exitDx=0;exitDy=0;" edge="1" parent="1" source="HRkGqnotARpjoitVVcCS-321" target="HRkGqnotARpjoitVVcCS-304">
          <mxGeometry relative="1" as="geometry">
            <Array as="points">
              <mxPoint x="-2700" y="1972" />
            </Array>
          </mxGeometry>
        </mxCell>
        <mxCell id="HRkGqnotARpjoitVVcCS-336" style="edgeStyle=orthogonalEdgeStyle;rounded=0;orthogonalLoop=1;jettySize=auto;html=1;entryX=0.24;entryY=0.058;entryDx=0;entryDy=0;entryPerimeter=0;dashed=1;" edge="1" parent="1" source="HRkGqnotARpjoitVVcCS-304" target="HRkGqnotARpjoitVVcCS-338">
          <mxGeometry relative="1" as="geometry">
            <mxPoint x="-2710" y="2080" as="targetPoint" />
            <Array as="points">
              <mxPoint x="-2725" y="2070" />
            </Array>
          </mxGeometry>
        </mxCell>
        <mxCell id="HRkGqnotARpjoitVVcCS-343" value="include" style="edgeLabel;html=1;align=center;verticalAlign=middle;resizable=0;points=[];" vertex="1" connectable="0" parent="HRkGqnotARpjoitVVcCS-336">
          <mxGeometry x="0.4566" y="1" relative="1" as="geometry">
            <mxPoint as="offset" />
          </mxGeometry>
        </mxCell>
        <mxCell id="HRkGqnotARpjoitVVcCS-304" value="Редактирование групп" style="ellipse;whiteSpace=wrap;html=1;" vertex="1" parent="1">
          <mxGeometry x="-2775" y="1778" width="120" height="80" as="geometry" />
        </mxCell>
        <mxCell id="HRkGqnotARpjoitVVcCS-323" value="extend" style="edgeStyle=orthogonalEdgeStyle;rounded=0;orthogonalLoop=1;jettySize=auto;html=1;dashed=1;exitX=0.233;exitY=0.089;exitDx=0;exitDy=0;entryX=0.5;entryY=1;entryDx=0;entryDy=0;exitPerimeter=0;" edge="1" parent="1" source="HRkGqnotARpjoitVVcCS-321" target="HRkGqnotARpjoitVVcCS-307">
          <mxGeometry relative="1" as="geometry">
            <Array as="points">
              <mxPoint x="-2585" y="1939" />
            </Array>
          </mxGeometry>
        </mxCell>
        <mxCell id="HRkGqnotARpjoitVVcCS-337" style="edgeStyle=orthogonalEdgeStyle;rounded=0;orthogonalLoop=1;jettySize=auto;html=1;exitX=0;exitY=1;exitDx=0;exitDy=0;dashed=1;" edge="1" parent="1" source="HRkGqnotARpjoitVVcCS-307" target="HRkGqnotARpjoitVVcCS-338">
          <mxGeometry relative="1" as="geometry">
            <mxPoint x="-2642.157894736842" y="2064.3684210526317" as="targetPoint" />
          </mxGeometry>
        </mxCell>
        <mxCell id="HRkGqnotARpjoitVVcCS-342" value="include&lt;br&gt;" style="edgeLabel;html=1;align=center;verticalAlign=middle;resizable=0;points=[];" vertex="1" connectable="0" parent="HRkGqnotARpjoitVVcCS-337">
          <mxGeometry x="0.7223" y="-3" relative="1" as="geometry">
            <mxPoint as="offset" />
          </mxGeometry>
        </mxCell>
        <mxCell id="HRkGqnotARpjoitVVcCS-307" value="Редактирование дисциплин" style="ellipse;whiteSpace=wrap;html=1;" vertex="1" parent="1">
          <mxGeometry x="-2645" y="1778" width="120" height="80" as="geometry" />
        </mxCell>
        <mxCell id="HRkGqnotARpjoitVVcCS-324" style="edgeStyle=orthogonalEdgeStyle;rounded=0;orthogonalLoop=1;jettySize=auto;html=1;entryX=0.5;entryY=1;entryDx=0;entryDy=0;dashed=1;exitX=0.97;exitY=0.247;exitDx=0;exitDy=0;exitPerimeter=0;" edge="1" parent="1" source="HRkGqnotARpjoitVVcCS-321" target="HRkGqnotARpjoitVVcCS-308">
          <mxGeometry relative="1" as="geometry" />
        </mxCell>
        <mxCell id="HRkGqnotARpjoitVVcCS-330" value="extend" style="edgeLabel;html=1;align=center;verticalAlign=middle;resizable=0;points=[];" vertex="1" connectable="0" parent="HRkGqnotARpjoitVVcCS-324">
          <mxGeometry x="-0.4913" y="2" relative="1" as="geometry">
            <mxPoint as="offset" />
          </mxGeometry>
        </mxCell>
        <mxCell id="HRkGqnotARpjoitVVcCS-346" style="edgeStyle=orthogonalEdgeStyle;rounded=0;orthogonalLoop=1;jettySize=auto;html=1;exitX=1;exitY=1;exitDx=0;exitDy=0;entryX=1;entryY=0.5;entryDx=0;entryDy=0;dashed=1;" edge="1" parent="1" source="HRkGqnotARpjoitVVcCS-308" target="HRkGqnotARpjoitVVcCS-338">
          <mxGeometry relative="1" as="geometry">
            <Array as="points">
              <mxPoint x="-2405" y="2105" />
            </Array>
          </mxGeometry>
        </mxCell>
        <mxCell id="HRkGqnotARpjoitVVcCS-347" value="include" style="edgeLabel;html=1;align=center;verticalAlign=middle;resizable=0;points=[];" vertex="1" connectable="0" parent="HRkGqnotARpjoitVVcCS-346">
          <mxGeometry x="0.3962" y="-4" relative="1" as="geometry">
            <mxPoint x="-1" as="offset" />
          </mxGeometry>
        </mxCell>
        <mxCell id="HRkGqnotARpjoitVVcCS-308" value="Редактирование работ" style="ellipse;whiteSpace=wrap;html=1;" vertex="1" parent="1">
          <mxGeometry x="-2507" y="1778" width="120" height="80" as="geometry" />
        </mxCell>
        <mxCell id="HRkGqnotARpjoitVVcCS-326" style="edgeStyle=orthogonalEdgeStyle;rounded=0;orthogonalLoop=1;jettySize=auto;html=1;entryX=0.5;entryY=1;entryDx=0;entryDy=0;dashed=1;exitX=1;exitY=0.5;exitDx=0;exitDy=0;" edge="1" parent="1" source="HRkGqnotARpjoitVVcCS-321" target="HRkGqnotARpjoitVVcCS-309">
          <mxGeometry relative="1" as="geometry">
            <Array as="points">
              <mxPoint x="-2326" y="1972" />
              <mxPoint x="-2326" y="1858" />
            </Array>
          </mxGeometry>
        </mxCell>
        <mxCell id="HRkGqnotARpjoitVVcCS-331" value="extend" style="edgeLabel;html=1;align=center;verticalAlign=middle;resizable=0;points=[];" vertex="1" connectable="0" parent="HRkGqnotARpjoitVVcCS-326">
          <mxGeometry x="0.3937" y="-2" relative="1" as="geometry">
            <mxPoint as="offset" />
          </mxGeometry>
        </mxCell>
        <mxCell id="HRkGqnotARpjoitVVcCS-340" style="edgeStyle=orthogonalEdgeStyle;rounded=0;orthogonalLoop=1;jettySize=auto;html=1;exitX=1;exitY=1;exitDx=0;exitDy=0;entryX=1;entryY=1;entryDx=0;entryDy=0;dashed=1;" edge="1" parent="1" source="HRkGqnotARpjoitVVcCS-309" target="HRkGqnotARpjoitVVcCS-338">
          <mxGeometry relative="1" as="geometry">
            <Array as="points">
              <mxPoint x="-2282" y="1846" />
              <mxPoint x="-2282" y="2133" />
            </Array>
          </mxGeometry>
        </mxCell>
        <mxCell id="HRkGqnotARpjoitVVcCS-345" value="include" style="edgeLabel;html=1;align=center;verticalAlign=middle;resizable=0;points=[];" vertex="1" connectable="0" parent="HRkGqnotARpjoitVVcCS-340">
          <mxGeometry x="0.4941" y="4" relative="1" as="geometry">
            <mxPoint as="offset" />
          </mxGeometry>
        </mxCell>
        <mxCell id="HRkGqnotARpjoitVVcCS-309" value="Редактирование студентов" style="ellipse;whiteSpace=wrap;html=1;" vertex="1" parent="1">
          <mxGeometry x="-2381" y="1778" width="120" height="80" as="geometry" />
        </mxCell>
        <mxCell id="HRkGqnotARpjoitVVcCS-328" style="edgeStyle=orthogonalEdgeStyle;rounded=0;orthogonalLoop=1;jettySize=auto;html=1;entryX=0.5;entryY=1;entryDx=0;entryDy=0;dashed=1;exitX=1;exitY=1;exitDx=0;exitDy=0;" edge="1" parent="1" source="HRkGqnotARpjoitVVcCS-321" target="HRkGqnotARpjoitVVcCS-310">
          <mxGeometry relative="1" as="geometry">
            <Array as="points">
              <mxPoint x="-2185" y="2000" />
            </Array>
          </mxGeometry>
        </mxCell>
        <mxCell id="HRkGqnotARpjoitVVcCS-332" value="extend" style="edgeLabel;html=1;align=center;verticalAlign=middle;resizable=0;points=[];" vertex="1" connectable="0" parent="HRkGqnotARpjoitVVcCS-328">
          <mxGeometry x="0.7638" y="-1" relative="1" as="geometry">
            <mxPoint as="offset" />
          </mxGeometry>
        </mxCell>
        <mxCell id="HRkGqnotARpjoitVVcCS-341" style="edgeStyle=orthogonalEdgeStyle;rounded=0;orthogonalLoop=1;jettySize=auto;html=1;exitX=1;exitY=1;exitDx=0;exitDy=0;entryX=1;entryY=0;entryDx=0;entryDy=0;dashed=1;" edge="1" parent="1" source="HRkGqnotARpjoitVVcCS-310" target="HRkGqnotARpjoitVVcCS-338">
          <mxGeometry relative="1" as="geometry">
            <Array as="points">
              <mxPoint x="-2143" y="2057" />
              <mxPoint x="-2629" y="2057" />
            </Array>
          </mxGeometry>
        </mxCell>
        <mxCell id="HRkGqnotARpjoitVVcCS-344" value="include" style="edgeLabel;html=1;align=center;verticalAlign=middle;resizable=0;points=[];" vertex="1" connectable="0" parent="HRkGqnotARpjoitVVcCS-341">
          <mxGeometry x="0.6508" relative="1" as="geometry">
            <mxPoint as="offset" />
          </mxGeometry>
        </mxCell>
        <mxCell id="HRkGqnotARpjoitVVcCS-310" value="Редактирование оценок" style="ellipse;whiteSpace=wrap;html=1;" vertex="1" parent="1">
          <mxGeometry x="-2245" y="1778" width="120" height="80" as="geometry" />
        </mxCell>
        <mxCell id="HRkGqnotARpjoitVVcCS-333" style="edgeStyle=orthogonalEdgeStyle;rounded=0;orthogonalLoop=1;jettySize=auto;html=1;exitX=0;exitY=1;exitDx=0;exitDy=0;dashed=1;entryX=0.048;entryY=0.28;entryDx=0;entryDy=0;entryPerimeter=0;" edge="1" parent="1" source="HRkGqnotARpjoitVVcCS-321" target="HRkGqnotARpjoitVVcCS-297">
          <mxGeometry relative="1" as="geometry">
            <mxPoint x="-2582" y="1665" as="targetPoint" />
            <Array as="points">
              <mxPoint x="-2792" y="2000" />
              <mxPoint x="-2792" y="1672" />
              <mxPoint x="-2603" y="1672" />
            </Array>
          </mxGeometry>
        </mxCell>
        <mxCell id="HRkGqnotARpjoitVVcCS-334" value="include&lt;br&gt;" style="edgeLabel;html=1;align=center;verticalAlign=middle;resizable=0;points=[];" vertex="1" connectable="0" parent="HRkGqnotARpjoitVVcCS-333">
          <mxGeometry x="0.1322" y="1" relative="1" as="geometry">
            <mxPoint as="offset" />
          </mxGeometry>
        </mxCell>
        <mxCell id="HRkGqnotARpjoitVVcCS-321" value="Вывод ошибки" style="ellipse;whiteSpace=wrap;html=1;" vertex="1" parent="1">
          <mxGeometry x="-2611" y="1934" width="120" height="80" as="geometry" />
        </mxCell>
        <mxCell id="HRkGqnotARpjoitVVcCS-348" style="edgeStyle=orthogonalEdgeStyle;rounded=0;orthogonalLoop=1;jettySize=auto;html=1;entryX=0;entryY=0.5;entryDx=0;entryDy=0;dashed=1;" edge="1" parent="1" source="HRkGqnotARpjoitVVcCS-338" target="HRkGqnotARpjoitVVcCS-349">
          <mxGeometry relative="1" as="geometry">
            <mxPoint x="-2671" y="2222.2631578947367" as="targetPoint" />
          </mxGeometry>
        </mxCell>
        <mxCell id="HRkGqnotARpjoitVVcCS-351" value="include" style="edgeLabel;html=1;align=center;verticalAlign=middle;resizable=0;points=[];" vertex="1" connectable="0" parent="HRkGqnotARpjoitVVcCS-348">
          <mxGeometry x="-0.5958" y="1" relative="1" as="geometry">
            <mxPoint as="offset" />
          </mxGeometry>
        </mxCell>
        <mxCell id="HRkGqnotARpjoitVVcCS-338" value="Обновление данных" style="ellipse;whiteSpace=wrap;html=1;" vertex="1" parent="1">
          <mxGeometry x="-2731" y="2065" width="120" height="80" as="geometry" />
        </mxCell>
        <mxCell id="HRkGqnotARpjoitVVcCS-353" value="" style="edgeStyle=orthogonalEdgeStyle;rounded=0;orthogonalLoop=1;jettySize=auto;html=1;entryX=0.715;entryY=0.043;entryDx=0;entryDy=0;entryPerimeter=0;dashed=1;" edge="1" parent="1" source="HRkGqnotARpjoitVVcCS-357" target="HRkGqnotARpjoitVVcCS-297">
          <mxGeometry relative="1" as="geometry">
            <Array as="points">
              <mxPoint x="-2107" y="2210" />
              <mxPoint x="-2107" y="1666" />
            </Array>
          </mxGeometry>
        </mxCell>
        <mxCell id="HRkGqnotARpjoitVVcCS-360" value="include" style="edgeLabel;html=1;align=center;verticalAlign=middle;resizable=0;points=[];" vertex="1" connectable="0" parent="HRkGqnotARpjoitVVcCS-353">
          <mxGeometry x="-0.931" y="4" relative="1" as="geometry">
            <mxPoint as="offset" />
          </mxGeometry>
        </mxCell>
        <mxCell id="HRkGqnotARpjoitVVcCS-355" value="include" style="edgeStyle=orthogonalEdgeStyle;rounded=0;orthogonalLoop=1;jettySize=auto;html=1;entryX=0.5;entryY=0;entryDx=0;entryDy=0;dashed=1;" edge="1" parent="1" source="HRkGqnotARpjoitVVcCS-349" target="HRkGqnotARpjoitVVcCS-361">
          <mxGeometry relative="1" as="geometry">
            <mxPoint x="-2575" y="2292.789473684211" as="targetPoint" />
          </mxGeometry>
        </mxCell>
        <mxCell id="HRkGqnotARpjoitVVcCS-349" value="Подключение к серверу" style="ellipse;whiteSpace=wrap;html=1;" vertex="1" parent="1">
          <mxGeometry x="-2635" y="2170" width="120" height="80" as="geometry" />
        </mxCell>
        <mxCell id="HRkGqnotARpjoitVVcCS-358" style="edgeStyle=orthogonalEdgeStyle;rounded=0;orthogonalLoop=1;jettySize=auto;html=1;exitX=0;exitY=0.5;exitDx=0;exitDy=0;dashed=1;" edge="1" parent="1" source="HRkGqnotARpjoitVVcCS-357" target="HRkGqnotARpjoitVVcCS-349">
          <mxGeometry relative="1" as="geometry" />
        </mxCell>
        <mxCell id="HRkGqnotARpjoitVVcCS-359" value="extend" style="edgeLabel;html=1;align=center;verticalAlign=middle;resizable=0;points=[];" vertex="1" connectable="0" parent="HRkGqnotARpjoitVVcCS-358">
          <mxGeometry x="-0.2722" relative="1" as="geometry">
            <mxPoint as="offset" />
          </mxGeometry>
        </mxCell>
        <mxCell id="HRkGqnotARpjoitVVcCS-357" value="Вывод ошибки" style="ellipse;whiteSpace=wrap;html=1;" vertex="1" parent="1">
          <mxGeometry x="-2422" y="2170" width="120" height="80" as="geometry" />
        </mxCell>
        <mxCell id="HRkGqnotARpjoitVVcCS-362" style="edgeStyle=orthogonalEdgeStyle;rounded=0;orthogonalLoop=1;jettySize=auto;html=1;exitX=0;exitY=0.5;exitDx=0;exitDy=0;entryX=0.276;entryY=0.07;entryDx=0;entryDy=0;entryPerimeter=0;dashed=1;" edge="1" parent="1" source="HRkGqnotARpjoitVVcCS-361" target="HRkGqnotARpjoitVVcCS-297">
          <mxGeometry relative="1" as="geometry">
            <Array as="points">
              <mxPoint x="-2834" y="2334" />
              <mxPoint x="-2834" y="1643" />
              <mxPoint x="-2576" y="1643" />
            </Array>
          </mxGeometry>
        </mxCell>
        <mxCell id="HRkGqnotARpjoitVVcCS-363" value="include" style="edgeLabel;html=1;align=center;verticalAlign=middle;resizable=0;points=[];" vertex="1" connectable="0" parent="HRkGqnotARpjoitVVcCS-362">
          <mxGeometry x="-0.1655" relative="1" as="geometry">
            <mxPoint as="offset" />
          </mxGeometry>
        </mxCell>
        <mxCell id="HRkGqnotARpjoitVVcCS-361" value="Обновление данных на портале" style="ellipse;whiteSpace=wrap;html=1;" vertex="1" parent="1">
          <mxGeometry x="-2635" y="2294" width="120" height="80" as="geometry" />
        </mxCell>
        <mxCell id="HRkGqnotARpjoitVVcCS-364" value="" style="rounded=0;whiteSpace=wrap;html=1;fillColor=none;" vertex="1" parent="1">
          <mxGeometry x="-2865" y="1388" width="792" height="993" as="geometry" />
        </mxCell>
        <mxCell id="HRkGqnotARpjoitVVcCS-365" value="Администратор" style="shape=umlActor;verticalLabelPosition=bottom;verticalAlign=top;html=1;outlineConnect=0;" vertex="1" parent="1">
          <mxGeometry x="-5500" y="1458" width="30" height="60" as="geometry" />
        </mxCell>
        <mxCell id="HRkGqnotARpjoitVVcCS-366" value="include" style="edgeStyle=orthogonalEdgeStyle;rounded=0;orthogonalLoop=1;jettySize=auto;html=1;dashed=1;entryX=0.5;entryY=0;entryDx=0;entryDy=0;" edge="1" parent="1" source="HRkGqnotARpjoitVVcCS-367" target="HRkGqnotARpjoitVVcCS-369">
          <mxGeometry relative="1" as="geometry">
            <mxPoint x="-5103" y="1569" as="targetPoint" />
          </mxGeometry>
        </mxCell>
        <mxCell id="HRkGqnotARpjoitVVcCS-367" value="Вход на портал" style="ellipse;whiteSpace=wrap;html=1;" vertex="1" parent="1">
          <mxGeometry x="-5163" y="1448" width="120" height="80" as="geometry" />
        </mxCell>
        <mxCell id="HRkGqnotARpjoitVVcCS-368" value="" style="endArrow=none;html=1;rounded=0;exitX=0.5;exitY=0.5;exitDx=0;exitDy=0;exitPerimeter=0;entryX=0;entryY=0.5;entryDx=0;entryDy=0;" edge="1" parent="1" source="HRkGqnotARpjoitVVcCS-365" target="HRkGqnotARpjoitVVcCS-367">
          <mxGeometry width="50" height="50" relative="1" as="geometry">
            <mxPoint x="-5031" y="1584" as="sourcePoint" />
            <mxPoint x="-4981" y="1534" as="targetPoint" />
          </mxGeometry>
        </mxCell>
        <mxCell id="HRkGqnotARpjoitVVcCS-369" value="Авторизация в панели администратора" style="ellipse;whiteSpace=wrap;html=1;" vertex="1" parent="1">
          <mxGeometry x="-5163" y="1575" width="120" height="80" as="geometry" />
        </mxCell>
        <mxCell id="HRkGqnotARpjoitVVcCS-370" value="include" style="edgeStyle=orthogonalEdgeStyle;rounded=0;orthogonalLoop=1;jettySize=auto;html=1;entryX=0.5;entryY=0;entryDx=0;entryDy=0;dashed=1;" edge="1" parent="1" source="HRkGqnotARpjoitVVcCS-379" target="HRkGqnotARpjoitVVcCS-388">
          <mxGeometry x="0.0119" relative="1" as="geometry">
            <mxPoint x="-5306.826086956522" y="1809.521739130435" as="targetPoint" />
            <mxPoint as="offset" />
          </mxGeometry>
        </mxCell>
        <mxCell id="HRkGqnotARpjoitVVcCS-371" style="edgeStyle=orthogonalEdgeStyle;rounded=0;orthogonalLoop=1;jettySize=auto;html=1;dashed=1;" edge="1" parent="1" source="HRkGqnotARpjoitVVcCS-379" target="HRkGqnotARpjoitVVcCS-392">
          <mxGeometry relative="1" as="geometry" />
        </mxCell>
        <mxCell id="HRkGqnotARpjoitVVcCS-372" value="include" style="edgeLabel;html=1;align=center;verticalAlign=middle;resizable=0;points=[];" vertex="1" connectable="0" parent="HRkGqnotARpjoitVVcCS-371">
          <mxGeometry x="-0.3625" y="2" relative="1" as="geometry">
            <mxPoint x="-1" as="offset" />
          </mxGeometry>
        </mxCell>
        <mxCell id="HRkGqnotARpjoitVVcCS-373" style="edgeStyle=orthogonalEdgeStyle;rounded=0;orthogonalLoop=1;jettySize=auto;html=1;exitX=1;exitY=1;exitDx=0;exitDy=0;entryX=0.5;entryY=0;entryDx=0;entryDy=0;dashed=1;" edge="1" parent="1" source="HRkGqnotARpjoitVVcCS-379" target="HRkGqnotARpjoitVVcCS-397">
          <mxGeometry relative="1" as="geometry">
            <Array as="points">
              <mxPoint x="-5061" y="1808" />
              <mxPoint x="-5001" y="1808" />
            </Array>
          </mxGeometry>
        </mxCell>
        <mxCell id="HRkGqnotARpjoitVVcCS-374" value="include" style="edgeLabel;html=1;align=center;verticalAlign=middle;resizable=0;points=[];" vertex="1" connectable="0" parent="HRkGqnotARpjoitVVcCS-373">
          <mxGeometry x="0.2999" y="1" relative="1" as="geometry">
            <mxPoint as="offset" />
          </mxGeometry>
        </mxCell>
        <mxCell id="HRkGqnotARpjoitVVcCS-379" value="Выбор действия" style="ellipse;whiteSpace=wrap;html=1;" vertex="1" parent="1">
          <mxGeometry x="-5163" y="1713" width="120" height="80" as="geometry" />
        </mxCell>
        <mxCell id="HRkGqnotARpjoitVVcCS-380" value="include" style="edgeStyle=orthogonalEdgeStyle;rounded=0;orthogonalLoop=1;jettySize=auto;html=1;dashed=1;entryX=0.5;entryY=0;entryDx=0;entryDy=0;exitX=0.5;exitY=1;exitDx=0;exitDy=0;" edge="1" parent="1" source="HRkGqnotARpjoitVVcCS-369" target="HRkGqnotARpjoitVVcCS-379">
          <mxGeometry relative="1" as="geometry">
            <mxPoint x="-5097" y="1707" as="targetPoint" />
            <mxPoint x="-5097" y="1660" as="sourcePoint" />
          </mxGeometry>
        </mxCell>
        <mxCell id="HRkGqnotARpjoitVVcCS-381" value="extend" style="edgeStyle=orthogonalEdgeStyle;rounded=0;orthogonalLoop=1;jettySize=auto;html=1;dashed=1;" edge="1" parent="1" source="HRkGqnotARpjoitVVcCS-384" target="HRkGqnotARpjoitVVcCS-369">
          <mxGeometry relative="1" as="geometry" />
        </mxCell>
        <mxCell id="HRkGqnotARpjoitVVcCS-382" style="edgeStyle=orthogonalEdgeStyle;rounded=0;orthogonalLoop=1;jettySize=auto;html=1;dashed=1;" edge="1" parent="1" source="HRkGqnotARpjoitVVcCS-384" target="HRkGqnotARpjoitVVcCS-367">
          <mxGeometry relative="1" as="geometry">
            <Array as="points">
              <mxPoint x="-4909" y="1488" />
            </Array>
          </mxGeometry>
        </mxCell>
        <mxCell id="HRkGqnotARpjoitVVcCS-383" value="include" style="edgeLabel;html=1;align=center;verticalAlign=middle;resizable=0;points=[];" vertex="1" connectable="0" parent="HRkGqnotARpjoitVVcCS-382">
          <mxGeometry x="0.2796" y="-1" relative="1" as="geometry">
            <mxPoint as="offset" />
          </mxGeometry>
        </mxCell>
        <mxCell id="HRkGqnotARpjoitVVcCS-384" value="Вывод ошибки" style="ellipse;whiteSpace=wrap;html=1;" vertex="1" parent="1">
          <mxGeometry x="-4965" y="1575" width="120" height="80" as="geometry" />
        </mxCell>
        <mxCell id="HRkGqnotARpjoitVVcCS-385" value="extend" style="edgeStyle=orthogonalEdgeStyle;rounded=0;orthogonalLoop=1;jettySize=auto;html=1;entryX=0.625;entryY=0.974;entryDx=0;entryDy=0;dashed=1;entryPerimeter=0;exitX=0;exitY=0.5;exitDx=0;exitDy=0;" edge="1" parent="1" source="HRkGqnotARpjoitVVcCS-410" target="HRkGqnotARpjoitVVcCS-388">
          <mxGeometry relative="1" as="geometry">
            <Array as="points">
              <mxPoint x="-5254" y="2022" />
            </Array>
          </mxGeometry>
        </mxCell>
        <mxCell id="HRkGqnotARpjoitVVcCS-386" style="edgeStyle=orthogonalEdgeStyle;rounded=0;orthogonalLoop=1;jettySize=auto;html=1;entryX=0.24;entryY=0.058;entryDx=0;entryDy=0;entryPerimeter=0;dashed=1;" edge="1" parent="1" source="HRkGqnotARpjoitVVcCS-388" target="HRkGqnotARpjoitVVcCS-413">
          <mxGeometry relative="1" as="geometry">
            <mxPoint x="-5264" y="2130" as="targetPoint" />
            <Array as="points">
              <mxPoint x="-5279" y="2120" />
            </Array>
          </mxGeometry>
        </mxCell>
        <mxCell id="HRkGqnotARpjoitVVcCS-387" value="include" style="edgeLabel;html=1;align=center;verticalAlign=middle;resizable=0;points=[];" vertex="1" connectable="0" parent="HRkGqnotARpjoitVVcCS-386">
          <mxGeometry x="0.4566" y="1" relative="1" as="geometry">
            <mxPoint as="offset" />
          </mxGeometry>
        </mxCell>
        <mxCell id="HRkGqnotARpjoitVVcCS-388" value="Редактирование групп" style="ellipse;whiteSpace=wrap;html=1;" vertex="1" parent="1">
          <mxGeometry x="-5329" y="1828" width="120" height="80" as="geometry" />
        </mxCell>
        <mxCell id="HRkGqnotARpjoitVVcCS-389" value="extend" style="edgeStyle=orthogonalEdgeStyle;rounded=0;orthogonalLoop=1;jettySize=auto;html=1;dashed=1;exitX=0.233;exitY=0.089;exitDx=0;exitDy=0;entryX=0.5;entryY=1;entryDx=0;entryDy=0;exitPerimeter=0;" edge="1" parent="1" source="HRkGqnotARpjoitVVcCS-410" target="HRkGqnotARpjoitVVcCS-392">
          <mxGeometry relative="1" as="geometry">
            <Array as="points">
              <mxPoint x="-5139" y="1989" />
            </Array>
          </mxGeometry>
        </mxCell>
        <mxCell id="HRkGqnotARpjoitVVcCS-390" style="edgeStyle=orthogonalEdgeStyle;rounded=0;orthogonalLoop=1;jettySize=auto;html=1;exitX=0;exitY=1;exitDx=0;exitDy=0;dashed=1;" edge="1" parent="1" source="HRkGqnotARpjoitVVcCS-392" target="HRkGqnotARpjoitVVcCS-413">
          <mxGeometry relative="1" as="geometry">
            <mxPoint x="-5196.157894736842" y="2114.3684210526317" as="targetPoint" />
          </mxGeometry>
        </mxCell>
        <mxCell id="HRkGqnotARpjoitVVcCS-391" value="include&lt;br&gt;" style="edgeLabel;html=1;align=center;verticalAlign=middle;resizable=0;points=[];" vertex="1" connectable="0" parent="HRkGqnotARpjoitVVcCS-390">
          <mxGeometry x="0.7223" y="-3" relative="1" as="geometry">
            <mxPoint as="offset" />
          </mxGeometry>
        </mxCell>
        <mxCell id="HRkGqnotARpjoitVVcCS-392" value="Редактирование дисциплин" style="ellipse;whiteSpace=wrap;html=1;" vertex="1" parent="1">
          <mxGeometry x="-5199" y="1828" width="120" height="80" as="geometry" />
        </mxCell>
        <mxCell id="HRkGqnotARpjoitVVcCS-393" style="edgeStyle=orthogonalEdgeStyle;rounded=0;orthogonalLoop=1;jettySize=auto;html=1;entryX=0.5;entryY=1;entryDx=0;entryDy=0;dashed=1;exitX=0.97;exitY=0.247;exitDx=0;exitDy=0;exitPerimeter=0;" edge="1" parent="1" source="HRkGqnotARpjoitVVcCS-410" target="HRkGqnotARpjoitVVcCS-397">
          <mxGeometry relative="1" as="geometry" />
        </mxCell>
        <mxCell id="HRkGqnotARpjoitVVcCS-394" value="extend" style="edgeLabel;html=1;align=center;verticalAlign=middle;resizable=0;points=[];" vertex="1" connectable="0" parent="HRkGqnotARpjoitVVcCS-393">
          <mxGeometry x="-0.4913" y="2" relative="1" as="geometry">
            <mxPoint as="offset" />
          </mxGeometry>
        </mxCell>
        <mxCell id="HRkGqnotARpjoitVVcCS-395" style="edgeStyle=orthogonalEdgeStyle;rounded=0;orthogonalLoop=1;jettySize=auto;html=1;exitX=1;exitY=1;exitDx=0;exitDy=0;entryX=1;entryY=0.5;entryDx=0;entryDy=0;dashed=1;" edge="1" parent="1" source="HRkGqnotARpjoitVVcCS-397" target="HRkGqnotARpjoitVVcCS-413">
          <mxGeometry relative="1" as="geometry">
            <Array as="points">
              <mxPoint x="-4959" y="2155" />
            </Array>
          </mxGeometry>
        </mxCell>
        <mxCell id="HRkGqnotARpjoitVVcCS-396" value="include" style="edgeLabel;html=1;align=center;verticalAlign=middle;resizable=0;points=[];" vertex="1" connectable="0" parent="HRkGqnotARpjoitVVcCS-395">
          <mxGeometry x="0.3962" y="-4" relative="1" as="geometry">
            <mxPoint x="-1" as="offset" />
          </mxGeometry>
        </mxCell>
        <mxCell id="HRkGqnotARpjoitVVcCS-397" value="Редактирование работ" style="ellipse;whiteSpace=wrap;html=1;" vertex="1" parent="1">
          <mxGeometry x="-5061" y="1828" width="120" height="80" as="geometry" />
        </mxCell>
        <mxCell id="HRkGqnotARpjoitVVcCS-408" style="edgeStyle=orthogonalEdgeStyle;rounded=0;orthogonalLoop=1;jettySize=auto;html=1;exitX=0;exitY=1;exitDx=0;exitDy=0;dashed=1;entryX=0.048;entryY=0.28;entryDx=0;entryDy=0;entryPerimeter=0;" edge="1" parent="1" source="HRkGqnotARpjoitVVcCS-410" target="HRkGqnotARpjoitVVcCS-379">
          <mxGeometry relative="1" as="geometry">
            <mxPoint x="-5136" y="1715" as="targetPoint" />
            <Array as="points">
              <mxPoint x="-5346" y="2050" />
              <mxPoint x="-5346" y="1722" />
              <mxPoint x="-5157" y="1722" />
            </Array>
          </mxGeometry>
        </mxCell>
        <mxCell id="HRkGqnotARpjoitVVcCS-409" value="include&lt;br&gt;" style="edgeLabel;html=1;align=center;verticalAlign=middle;resizable=0;points=[];" vertex="1" connectable="0" parent="HRkGqnotARpjoitVVcCS-408">
          <mxGeometry x="0.1322" y="1" relative="1" as="geometry">
            <mxPoint as="offset" />
          </mxGeometry>
        </mxCell>
        <mxCell id="HRkGqnotARpjoitVVcCS-410" value="Вывод ошибки" style="ellipse;whiteSpace=wrap;html=1;" vertex="1" parent="1">
          <mxGeometry x="-5165" y="1984" width="120" height="80" as="geometry" />
        </mxCell>
        <mxCell id="HRkGqnotARpjoitVVcCS-411" style="edgeStyle=orthogonalEdgeStyle;rounded=0;orthogonalLoop=1;jettySize=auto;html=1;entryX=0;entryY=0.5;entryDx=0;entryDy=0;dashed=1;" edge="1" parent="1" source="HRkGqnotARpjoitVVcCS-413" target="HRkGqnotARpjoitVVcCS-417">
          <mxGeometry relative="1" as="geometry">
            <mxPoint x="-5225" y="2272.2631578947367" as="targetPoint" />
          </mxGeometry>
        </mxCell>
        <mxCell id="HRkGqnotARpjoitVVcCS-412" value="include" style="edgeLabel;html=1;align=center;verticalAlign=middle;resizable=0;points=[];" vertex="1" connectable="0" parent="HRkGqnotARpjoitVVcCS-411">
          <mxGeometry x="-0.5958" y="1" relative="1" as="geometry">
            <mxPoint as="offset" />
          </mxGeometry>
        </mxCell>
        <mxCell id="HRkGqnotARpjoitVVcCS-413" value="Обновление данных" style="ellipse;whiteSpace=wrap;html=1;" vertex="1" parent="1">
          <mxGeometry x="-5285" y="2115" width="120" height="80" as="geometry" />
        </mxCell>
        <mxCell id="HRkGqnotARpjoitVVcCS-414" value="" style="edgeStyle=orthogonalEdgeStyle;rounded=0;orthogonalLoop=1;jettySize=auto;html=1;entryX=0.715;entryY=0.043;entryDx=0;entryDy=0;entryPerimeter=0;dashed=1;" edge="1" parent="1" source="HRkGqnotARpjoitVVcCS-420" target="HRkGqnotARpjoitVVcCS-379">
          <mxGeometry relative="1" as="geometry">
            <Array as="points">
              <mxPoint x="-4912" y="1716" />
            </Array>
          </mxGeometry>
        </mxCell>
        <mxCell id="HRkGqnotARpjoitVVcCS-415" value="include" style="edgeLabel;html=1;align=center;verticalAlign=middle;resizable=0;points=[];" vertex="1" connectable="0" parent="HRkGqnotARpjoitVVcCS-414">
          <mxGeometry x="-0.931" y="4" relative="1" as="geometry">
            <mxPoint as="offset" />
          </mxGeometry>
        </mxCell>
        <mxCell id="HRkGqnotARpjoitVVcCS-416" value="include" style="edgeStyle=orthogonalEdgeStyle;rounded=0;orthogonalLoop=1;jettySize=auto;html=1;entryX=0.5;entryY=0;entryDx=0;entryDy=0;dashed=1;" edge="1" parent="1" source="HRkGqnotARpjoitVVcCS-417" target="HRkGqnotARpjoitVVcCS-423">
          <mxGeometry relative="1" as="geometry">
            <mxPoint x="-5129" y="2342.789473684211" as="targetPoint" />
          </mxGeometry>
        </mxCell>
        <mxCell id="HRkGqnotARpjoitVVcCS-417" value="Подключение к серверу" style="ellipse;whiteSpace=wrap;html=1;" vertex="1" parent="1">
          <mxGeometry x="-5189" y="2220" width="120" height="80" as="geometry" />
        </mxCell>
        <mxCell id="HRkGqnotARpjoitVVcCS-418" style="edgeStyle=orthogonalEdgeStyle;rounded=0;orthogonalLoop=1;jettySize=auto;html=1;exitX=0;exitY=0.5;exitDx=0;exitDy=0;dashed=1;" edge="1" parent="1" source="HRkGqnotARpjoitVVcCS-420" target="HRkGqnotARpjoitVVcCS-417">
          <mxGeometry relative="1" as="geometry" />
        </mxCell>
        <mxCell id="HRkGqnotARpjoitVVcCS-419" value="extend" style="edgeLabel;html=1;align=center;verticalAlign=middle;resizable=0;points=[];" vertex="1" connectable="0" parent="HRkGqnotARpjoitVVcCS-418">
          <mxGeometry x="-0.2722" relative="1" as="geometry">
            <mxPoint as="offset" />
          </mxGeometry>
        </mxCell>
        <mxCell id="HRkGqnotARpjoitVVcCS-420" value="Вывод ошибки" style="ellipse;whiteSpace=wrap;html=1;" vertex="1" parent="1">
          <mxGeometry x="-4976" y="2220" width="120" height="80" as="geometry" />
        </mxCell>
        <mxCell id="HRkGqnotARpjoitVVcCS-421" style="edgeStyle=orthogonalEdgeStyle;rounded=0;orthogonalLoop=1;jettySize=auto;html=1;exitX=0;exitY=0.5;exitDx=0;exitDy=0;entryX=0.276;entryY=0.07;entryDx=0;entryDy=0;entryPerimeter=0;dashed=1;" edge="1" parent="1" source="HRkGqnotARpjoitVVcCS-423" target="HRkGqnotARpjoitVVcCS-379">
          <mxGeometry relative="1" as="geometry">
            <Array as="points">
              <mxPoint x="-5388" y="2384" />
              <mxPoint x="-5388" y="1693" />
              <mxPoint x="-5130" y="1693" />
            </Array>
          </mxGeometry>
        </mxCell>
        <mxCell id="HRkGqnotARpjoitVVcCS-422" value="include" style="edgeLabel;html=1;align=center;verticalAlign=middle;resizable=0;points=[];" vertex="1" connectable="0" parent="HRkGqnotARpjoitVVcCS-421">
          <mxGeometry x="-0.1655" relative="1" as="geometry">
            <mxPoint as="offset" />
          </mxGeometry>
        </mxCell>
        <mxCell id="HRkGqnotARpjoitVVcCS-423" value="Обновление данных на портале" style="ellipse;whiteSpace=wrap;html=1;" vertex="1" parent="1">
          <mxGeometry x="-5189" y="2344" width="120" height="80" as="geometry" />
        </mxCell>
        <mxCell id="HRkGqnotARpjoitVVcCS-425" value="" style="rounded=0;whiteSpace=wrap;html=1;fillColor=none;" vertex="1" parent="1">
          <mxGeometry x="-5432" y="1438" width="639" height="1006" as="geometry" />
        </mxCell>
        <mxCell id="HRkGqnotARpjoitVVcCS-426" value="Администратор" style="shape=umlActor;verticalLabelPosition=bottom;verticalAlign=top;html=1;outlineConnect=0;" vertex="1" parent="1">
          <mxGeometry x="-4505" y="1390" width="30" height="60" as="geometry" />
        </mxCell>
        <mxCell id="HRkGqnotARpjoitVVcCS-433" style="edgeStyle=orthogonalEdgeStyle;rounded=0;orthogonalLoop=1;jettySize=auto;html=1;exitX=1;exitY=0.25;exitDx=0;exitDy=0;entryX=0;entryY=0.25;entryDx=0;entryDy=0;" edge="1" parent="1" source="HRkGqnotARpjoitVVcCS-427" target="HRkGqnotARpjoitVVcCS-431">
          <mxGeometry relative="1" as="geometry">
            <mxPoint x="-4441" y="1615.9999999999995" as="targetPoint" />
            <Array as="points">
              <mxPoint x="-4484" y="1575" />
            </Array>
          </mxGeometry>
        </mxCell>
        <mxCell id="HRkGqnotARpjoitVVcCS-464" style="edgeStyle=orthogonalEdgeStyle;rounded=0;orthogonalLoop=1;jettySize=auto;html=1;exitX=1;exitY=0.75;exitDx=0;exitDy=0;entryX=0;entryY=0.75;entryDx=0;entryDy=0;" edge="1" parent="1" source="HRkGqnotARpjoitVVcCS-427" target="HRkGqnotARpjoitVVcCS-431">
          <mxGeometry relative="1" as="geometry" />
        </mxCell>
        <mxCell id="HRkGqnotARpjoitVVcCS-427" value="" style="rounded=0;whiteSpace=wrap;html=1;" vertex="1" parent="1">
          <mxGeometry x="-4495.5" y="1478" width="11" height="409" as="geometry" />
        </mxCell>
        <mxCell id="HRkGqnotARpjoitVVcCS-428" value="Панель администратора&lt;br&gt;" style="rounded=0;whiteSpace=wrap;html=1;" vertex="1" parent="1">
          <mxGeometry x="-4299" y="1393" width="120" height="60" as="geometry" />
        </mxCell>
        <mxCell id="HRkGqnotARpjoitVVcCS-429" value="Программа" style="rounded=0;whiteSpace=wrap;html=1;" vertex="1" parent="1">
          <mxGeometry x="-4090" y="1393" width="120" height="60" as="geometry" />
        </mxCell>
        <mxCell id="HRkGqnotARpjoitVVcCS-430" value="База данных&lt;br&gt;" style="rounded=0;whiteSpace=wrap;html=1;" vertex="1" parent="1">
          <mxGeometry x="-3883" y="1393" width="120" height="60" as="geometry" />
        </mxCell>
        <mxCell id="HRkGqnotARpjoitVVcCS-466" style="edgeStyle=orthogonalEdgeStyle;rounded=0;orthogonalLoop=1;jettySize=auto;html=1;exitX=1;exitY=0.75;exitDx=0;exitDy=0;entryX=0;entryY=0.75;entryDx=0;entryDy=0;" edge="1" parent="1" source="HRkGqnotARpjoitVVcCS-431" target="HRkGqnotARpjoitVVcCS-438">
          <mxGeometry relative="1" as="geometry" />
        </mxCell>
        <mxCell id="HRkGqnotARpjoitVVcCS-431" value="" style="rounded=0;whiteSpace=wrap;html=1;" vertex="1" parent="1">
          <mxGeometry x="-4244.5" y="1473" width="11" height="409" as="geometry" />
        </mxCell>
        <mxCell id="HRkGqnotARpjoitVVcCS-434" value="Вход на портал" style="text;html=1;align=center;verticalAlign=middle;resizable=0;points=[];autosize=1;strokeColor=none;fillColor=none;" vertex="1" parent="1">
          <mxGeometry x="-4431" y="1540" width="104" height="26" as="geometry" />
        </mxCell>
        <mxCell id="HRkGqnotARpjoitVVcCS-443" style="edgeStyle=orthogonalEdgeStyle;rounded=0;orthogonalLoop=1;jettySize=auto;html=1;exitX=0.045;exitY=0.372;exitDx=0;exitDy=0;entryX=1.091;entryY=0.348;entryDx=0;entryDy=0;entryPerimeter=0;exitPerimeter=0;dashed=1;" edge="1" parent="1" source="HRkGqnotARpjoitVVcCS-435" target="HRkGqnotARpjoitVVcCS-438">
          <mxGeometry relative="1" as="geometry" />
        </mxCell>
        <mxCell id="HRkGqnotARpjoitVVcCS-435" value="" style="rounded=0;whiteSpace=wrap;html=1;" vertex="1" parent="1">
          <mxGeometry x="-3828.5" y="1468" width="11" height="409" as="geometry" />
        </mxCell>
        <mxCell id="HRkGqnotARpjoitVVcCS-436" style="edgeStyle=orthogonalEdgeStyle;rounded=0;orthogonalLoop=1;jettySize=auto;html=1;exitX=1;exitY=0.25;exitDx=0;exitDy=0;entryX=0;entryY=0.25;entryDx=0;entryDy=0;" edge="1" parent="1" target="HRkGqnotARpjoitVVcCS-438">
          <mxGeometry relative="1" as="geometry">
            <mxPoint x="-4233.5" y="1580" as="sourcePoint" />
            <mxPoint x="-3829" y="1575" as="targetPoint" />
            <Array as="points">
              <mxPoint x="-4233" y="1575" />
            </Array>
          </mxGeometry>
        </mxCell>
        <mxCell id="HRkGqnotARpjoitVVcCS-437" value="Авторизация" style="text;html=1;align=center;verticalAlign=middle;resizable=0;points=[];autosize=1;strokeColor=none;fillColor=none;" vertex="1" parent="1">
          <mxGeometry x="-4189" y="1540" width="90" height="26" as="geometry" />
        </mxCell>
        <mxCell id="HRkGqnotARpjoitVVcCS-441" style="edgeStyle=orthogonalEdgeStyle;rounded=0;orthogonalLoop=1;jettySize=auto;html=1;exitX=1;exitY=0.25;exitDx=0;exitDy=0;entryX=0;entryY=0.25;entryDx=0;entryDy=0;" edge="1" parent="1" source="HRkGqnotARpjoitVVcCS-438" target="HRkGqnotARpjoitVVcCS-435">
          <mxGeometry relative="1" as="geometry" />
        </mxCell>
        <mxCell id="HRkGqnotARpjoitVVcCS-469" style="edgeStyle=orthogonalEdgeStyle;rounded=0;orthogonalLoop=1;jettySize=auto;html=1;exitX=1;exitY=0.75;exitDx=0;exitDy=0;entryX=0;entryY=0.75;entryDx=0;entryDy=0;" edge="1" parent="1" source="HRkGqnotARpjoitVVcCS-438" target="HRkGqnotARpjoitVVcCS-435">
          <mxGeometry relative="1" as="geometry" />
        </mxCell>
        <mxCell id="HRkGqnotARpjoitVVcCS-438" value="" style="rounded=0;whiteSpace=wrap;html=1;" vertex="1" parent="1">
          <mxGeometry x="-4040" y="1473" width="11" height="409" as="geometry" />
        </mxCell>
        <mxCell id="HRkGqnotARpjoitVVcCS-442" value="Запрос данных о авторизации" style="text;html=1;align=center;verticalAlign=middle;resizable=0;points=[];autosize=1;strokeColor=none;fillColor=none;" vertex="1" parent="1">
          <mxGeometry x="-4015.5" y="1538" width="187" height="26" as="geometry" />
        </mxCell>
        <mxCell id="HRkGqnotARpjoitVVcCS-444" value="Данные&amp;nbsp; авторизации" style="text;html=1;align=center;verticalAlign=middle;resizable=0;points=[];autosize=1;strokeColor=none;fillColor=none;" vertex="1" parent="1">
          <mxGeometry x="-3991.5" y="1593" width="139" height="26" as="geometry" />
        </mxCell>
        <mxCell id="HRkGqnotARpjoitVVcCS-448" style="edgeStyle=orthogonalEdgeStyle;rounded=0;orthogonalLoop=1;jettySize=auto;html=1;" edge="1" parent="1">
          <mxGeometry relative="1" as="geometry">
            <mxPoint x="-4044.5" y="1625" as="sourcePoint" />
            <mxPoint x="-4233.5" y="1614" as="targetPoint" />
            <Array as="points">
              <mxPoint x="-4124" y="1619" />
              <mxPoint x="-4124" y="1614" />
            </Array>
          </mxGeometry>
        </mxCell>
        <mxCell id="HRkGqnotARpjoitVVcCS-449" value="Успешная авторизация" style="text;html=1;align=center;verticalAlign=middle;resizable=0;points=[];autosize=1;strokeColor=none;fillColor=none;" vertex="1" parent="1">
          <mxGeometry x="-4217.5" y="1588" width="147" height="26" as="geometry" />
        </mxCell>
        <mxCell id="HRkGqnotARpjoitVVcCS-452" value="Ошибка авторизации" style="text;html=1;align=center;verticalAlign=middle;resizable=0;points=[];autosize=1;strokeColor=none;fillColor=none;" vertex="1" parent="1">
          <mxGeometry x="-4203" y="1651" width="137" height="26" as="geometry" />
        </mxCell>
        <mxCell id="HRkGqnotARpjoitVVcCS-454" value="Проверка на валидность&lt;br&gt;" style="endArrow=block;endFill=1;html=1;edgeStyle=orthogonalEdgeStyle;align=left;verticalAlign=top;rounded=0;entryX=1;entryY=0.5;entryDx=0;entryDy=0;" edge="1" parent="1" target="HRkGqnotARpjoitVVcCS-438">
          <mxGeometry x="-0.6612" y="-9" relative="1" as="geometry">
            <mxPoint x="-4033" y="1629" as="sourcePoint" />
            <mxPoint x="-3998" y="1683" as="targetPoint" />
            <Array as="points">
              <mxPoint x="-4033" y="1640" />
              <mxPoint x="-3972" y="1640" />
              <mxPoint x="-3972" y="1678" />
            </Array>
            <mxPoint x="1" as="offset" />
          </mxGeometry>
        </mxCell>
        <mxCell id="HRkGqnotARpjoitVVcCS-455" value="1" style="edgeLabel;resizable=0;html=1;align=left;verticalAlign=bottom;" connectable="0" vertex="1" parent="HRkGqnotARpjoitVVcCS-454">
          <mxGeometry x="-1" relative="1" as="geometry" />
        </mxCell>
        <mxCell id="HRkGqnotARpjoitVVcCS-456" style="edgeStyle=orthogonalEdgeStyle;rounded=0;orthogonalLoop=1;jettySize=auto;html=1;dashed=1;" edge="1" parent="1">
          <mxGeometry relative="1" as="geometry">
            <mxPoint x="-4040" y="1686" as="sourcePoint" />
            <mxPoint x="-4229" y="1675" as="targetPoint" />
            <Array as="points">
              <mxPoint x="-4119.5" y="1680" />
              <mxPoint x="-4119.5" y="1675" />
            </Array>
          </mxGeometry>
        </mxCell>
        <mxCell id="HRkGqnotARpjoitVVcCS-458" value="Ошибка авторизации" style="text;html=1;align=center;verticalAlign=middle;resizable=0;points=[];autosize=1;strokeColor=none;fillColor=none;" vertex="1" parent="1">
          <mxGeometry x="-4431" y="1640" width="137" height="26" as="geometry" />
        </mxCell>
        <mxCell id="HRkGqnotARpjoitVVcCS-460" style="edgeStyle=orthogonalEdgeStyle;rounded=0;orthogonalLoop=1;jettySize=auto;html=1;dashed=1;" edge="1" parent="1">
          <mxGeometry relative="1" as="geometry">
            <mxPoint x="-4244.5" y="1683" as="sourcePoint" />
            <mxPoint x="-4478" y="1672" as="targetPoint" />
            <Array as="points">
              <mxPoint x="-4324" y="1677" />
              <mxPoint x="-4324" y="1672" />
            </Array>
          </mxGeometry>
        </mxCell>
        <mxCell id="HRkGqnotARpjoitVVcCS-461" value="ALT" style="shape=umlFrame;whiteSpace=wrap;html=1;pointerEvents=0;" vertex="1" parent="1">
          <mxGeometry x="-4431" y="1726" width="653" height="233" as="geometry" />
        </mxCell>
        <mxCell id="HRkGqnotARpjoitVVcCS-465" value="Изменение БД" style="text;html=1;align=center;verticalAlign=middle;resizable=0;points=[];autosize=1;strokeColor=none;fillColor=none;" vertex="1" parent="1">
          <mxGeometry x="-4431" y="1752" width="100" height="26" as="geometry" />
        </mxCell>
        <mxCell id="HRkGqnotARpjoitVVcCS-467" value="Обработка изменений" style="text;html=1;align=center;verticalAlign=middle;resizable=0;points=[];autosize=1;strokeColor=none;fillColor=none;" vertex="1" parent="1">
          <mxGeometry x="-4212.5" y="1752" width="142" height="26" as="geometry" />
        </mxCell>
        <mxCell id="HRkGqnotARpjoitVVcCS-468" value="Запрос на изменение данных" style="text;html=1;align=center;verticalAlign=middle;resizable=0;points=[];autosize=1;strokeColor=none;fillColor=none;" vertex="1" parent="1">
          <mxGeometry x="-4020" y="1752" width="183" height="26" as="geometry" />
        </mxCell>
        <mxCell id="HRkGqnotARpjoitVVcCS-470" value="" style="endArrow=block;endFill=1;html=1;edgeStyle=orthogonalEdgeStyle;align=left;verticalAlign=top;rounded=0;entryX=0.977;entryY=0.843;entryDx=0;entryDy=0;entryPerimeter=0;" edge="1" parent="1" target="HRkGqnotARpjoitVVcCS-438">
          <mxGeometry x="-1" relative="1" as="geometry">
            <mxPoint x="-3829" y="1818" as="sourcePoint" />
            <mxPoint x="-3672" y="1812" as="targetPoint" />
          </mxGeometry>
        </mxCell>
        <mxCell id="HRkGqnotARpjoitVVcCS-471" value="1" style="edgeLabel;resizable=0;html=1;align=left;verticalAlign=bottom;" connectable="0" vertex="1" parent="HRkGqnotARpjoitVVcCS-470">
          <mxGeometry x="-1" relative="1" as="geometry" />
        </mxCell>
        <mxCell id="HRkGqnotARpjoitVVcCS-472" value="Подключение к серверу" style="text;html=1;align=center;verticalAlign=middle;resizable=0;points=[];autosize=1;strokeColor=none;fillColor=none;" vertex="1" parent="1">
          <mxGeometry x="-4010" y="1792" width="151" height="26" as="geometry" />
        </mxCell>
        <mxCell id="HRkGqnotARpjoitVVcCS-473" value="" style="endArrow=block;endFill=1;html=1;edgeStyle=orthogonalEdgeStyle;align=left;verticalAlign=top;rounded=0;entryX=0.977;entryY=0.843;entryDx=0;entryDy=0;entryPerimeter=0;" edge="1" parent="1">
          <mxGeometry x="-1" relative="1" as="geometry">
            <mxPoint x="-4040" y="1818" as="sourcePoint" />
            <mxPoint x="-4240" y="1818" as="targetPoint" />
          </mxGeometry>
        </mxCell>
        <mxCell id="HRkGqnotARpjoitVVcCS-474" value="1" style="edgeLabel;resizable=0;html=1;align=left;verticalAlign=bottom;" connectable="0" vertex="1" parent="HRkGqnotARpjoitVVcCS-473">
          <mxGeometry x="-1" relative="1" as="geometry" />
        </mxCell>
        <mxCell id="HRkGqnotARpjoitVVcCS-475" value="Обновление данных на портале" style="text;html=1;align=center;verticalAlign=middle;resizable=0;points=[];autosize=1;strokeColor=none;fillColor=none;" vertex="1" parent="1">
          <mxGeometry x="-4243" y="1790" width="197" height="26" as="geometry" />
        </mxCell>
        <mxCell id="HRkGqnotARpjoitVVcCS-476" style="edgeStyle=orthogonalEdgeStyle;rounded=0;orthogonalLoop=1;jettySize=auto;html=1;dashed=1;" edge="1" parent="1">
          <mxGeometry relative="1" as="geometry">
            <mxPoint x="-4040" y="1873.5" as="sourcePoint" />
            <mxPoint x="-4229" y="1862.5" as="targetPoint" />
            <Array as="points">
              <mxPoint x="-4119.5" y="1867.5" />
              <mxPoint x="-4119.5" y="1862.5" />
            </Array>
          </mxGeometry>
        </mxCell>
        <mxCell id="HRkGqnotARpjoitVVcCS-477" value="Ошибка подключения" style="endArrow=block;endFill=1;html=1;edgeStyle=orthogonalEdgeStyle;align=left;verticalAlign=top;rounded=0;entryX=1;entryY=0.5;entryDx=0;entryDy=0;" edge="1" parent="1">
          <mxGeometry x="-0.6612" y="-9" relative="1" as="geometry">
            <mxPoint x="-4029" y="1823.5" as="sourcePoint" />
            <mxPoint x="-4025" y="1872.5" as="targetPoint" />
            <Array as="points">
              <mxPoint x="-4029" y="1834.5" />
              <mxPoint x="-3968" y="1834.5" />
              <mxPoint x="-3968" y="1872.5" />
            </Array>
            <mxPoint x="1" as="offset" />
          </mxGeometry>
        </mxCell>
        <mxCell id="HRkGqnotARpjoitVVcCS-479" value="Ошибка подключения к серверу" style="text;html=1;align=center;verticalAlign=middle;resizable=0;points=[];autosize=1;strokeColor=none;fillColor=none;" vertex="1" parent="1">
          <mxGeometry x="-4237" y="1839" width="197" height="26" as="geometry" />
        </mxCell>
        <mxCell id="HRkGqnotARpjoitVVcCS-480" value="ALT" style="shape=umlFrame;whiteSpace=wrap;html=1;pointerEvents=0;" vertex="1" parent="1">
          <mxGeometry x="-4433" y="1476" width="653" height="233" as="geometry" />
        </mxCell>
        <mxCell id="HRkGqnotARpjoitVVcCS-489" value="ChangeData" style="swimlane;fontStyle=1;align=center;verticalAlign=top;childLayout=stackLayout;horizontal=1;startSize=26;horizontalStack=0;resizeParent=1;resizeParentMax=0;resizeLast=0;collapsible=1;marginBottom=0;whiteSpace=wrap;html=1;" vertex="1" parent="1">
          <mxGeometry x="-4147" y="2170" width="160" height="308" as="geometry" />
        </mxCell>
        <mxCell id="HRkGqnotARpjoitVVcCS-490" value="string: disciplineName&lt;br&gt;string: groupName&lt;br&gt;file: task" style="text;strokeColor=none;fillColor=none;align=left;verticalAlign=top;spacingLeft=4;spacingRight=4;overflow=hidden;rotatable=0;points=[[0,0.5],[1,0.5]];portConstraint=eastwest;whiteSpace=wrap;html=1;" vertex="1" parent="HRkGqnotARpjoitVVcCS-489">
          <mxGeometry y="26" width="160" height="58" as="geometry" />
        </mxCell>
        <mxCell id="HRkGqnotARpjoitVVcCS-491" value="" style="line;strokeWidth=1;fillColor=none;align=left;verticalAlign=middle;spacingTop=-1;spacingLeft=3;spacingRight=3;rotatable=0;labelPosition=right;points=[];portConstraint=eastwest;strokeColor=inherit;" vertex="1" parent="HRkGqnotARpjoitVVcCS-489">
          <mxGeometry y="84" width="160" height="8" as="geometry" />
        </mxCell>
        <mxCell id="HRkGqnotARpjoitVVcCS-492" value="create discipline&lt;br&gt;edit discipline&lt;br&gt;delete discilpine&lt;br&gt;&lt;br&gt;create group&lt;br style=&quot;border-color: var(--border-color);&quot;&gt;edit group&lt;br style=&quot;border-color: var(--border-color);&quot;&gt;delete group&lt;br&gt;&lt;br&gt;create task&lt;br style=&quot;border-color: var(--border-color);&quot;&gt;edit task&lt;br style=&quot;border-color: var(--border-color);&quot;&gt;delete task&lt;br&gt;&lt;br&gt;saveData&lt;br&gt;SendConnectServer" style="text;strokeColor=none;fillColor=none;align=left;verticalAlign=top;spacingLeft=4;spacingRight=4;overflow=hidden;rotatable=0;points=[[0,0.5],[1,0.5]];portConstraint=eastwest;whiteSpace=wrap;html=1;" vertex="1" parent="HRkGqnotARpjoitVVcCS-489">
          <mxGeometry y="92" width="160" height="216" as="geometry" />
        </mxCell>
        <mxCell id="HRkGqnotARpjoitVVcCS-493" value="ConnectDB" style="swimlane;fontStyle=1;align=center;verticalAlign=top;childLayout=stackLayout;horizontal=1;startSize=26;horizontalStack=0;resizeParent=1;resizeParentMax=0;resizeLast=0;collapsible=1;marginBottom=0;whiteSpace=wrap;html=1;" vertex="1" parent="1">
          <mxGeometry x="-3918" y="2166.5" width="160" height="129" as="geometry" />
        </mxCell>
        <mxCell id="HRkGqnotARpjoitVVcCS-494" value="string: DBName&lt;br style=&quot;border-color: var(--border-color);&quot;&gt;string: DBPath" style="text;strokeColor=none;fillColor=none;align=left;verticalAlign=top;spacingLeft=4;spacingRight=4;overflow=hidden;rotatable=0;points=[[0,0.5],[1,0.5]];portConstraint=eastwest;whiteSpace=wrap;html=1;" vertex="1" parent="HRkGqnotARpjoitVVcCS-493">
          <mxGeometry y="26" width="160" height="38" as="geometry" />
        </mxCell>
        <mxCell id="HRkGqnotARpjoitVVcCS-495" value="" style="line;strokeWidth=1;fillColor=none;align=left;verticalAlign=middle;spacingTop=-1;spacingLeft=3;spacingRight=3;rotatable=0;labelPosition=right;points=[];portConstraint=eastwest;strokeColor=inherit;" vertex="1" parent="HRkGqnotARpjoitVVcCS-493">
          <mxGeometry y="64" width="160" height="8" as="geometry" />
        </mxCell>
        <mxCell id="HRkGqnotARpjoitVVcCS-496" value="ConnectDB&lt;br&gt;UploadData" style="text;strokeColor=none;fillColor=none;align=left;verticalAlign=top;spacingLeft=4;spacingRight=4;overflow=hidden;rotatable=0;points=[[0,0.5],[1,0.5]];portConstraint=eastwest;whiteSpace=wrap;html=1;" vertex="1" parent="HRkGqnotARpjoitVVcCS-493">
          <mxGeometry y="72" width="160" height="57" as="geometry" />
        </mxCell>
        <mxCell id="HRkGqnotARpjoitVVcCS-497" style="edgeStyle=orthogonalEdgeStyle;rounded=0;orthogonalLoop=1;jettySize=auto;html=1;entryX=-0.035;entryY=-0.124;entryDx=0;entryDy=0;entryPerimeter=0;" edge="1" parent="1" source="HRkGqnotARpjoitVVcCS-485" target="HRkGqnotARpjoitVVcCS-490">
          <mxGeometry relative="1" as="geometry">
            <mxPoint x="-4324" y="2189" as="sourcePoint" />
            <Array as="points" />
          </mxGeometry>
        </mxCell>
        <mxCell id="HRkGqnotARpjoitVVcCS-485" value="Autorisation" style="swimlane;fontStyle=1;align=center;verticalAlign=top;childLayout=stackLayout;horizontal=1;startSize=26;horizontalStack=0;resizeParent=1;resizeParentMax=0;resizeLast=0;collapsible=1;marginBottom=0;whiteSpace=wrap;html=1;" vertex="1" parent="1">
          <mxGeometry x="-4403" y="2181" width="160" height="138" as="geometry" />
        </mxCell>
        <mxCell id="HRkGqnotARpjoitVVcCS-486" value="string: login&lt;br&gt;string: password" style="text;strokeColor=none;fillColor=none;align=left;verticalAlign=top;spacingLeft=4;spacingRight=4;overflow=hidden;rotatable=0;points=[[0,0.5],[1,0.5]];portConstraint=eastwest;whiteSpace=wrap;html=1;" vertex="1" parent="HRkGqnotARpjoitVVcCS-485">
          <mxGeometry y="26" width="160" height="51" as="geometry" />
        </mxCell>
        <mxCell id="HRkGqnotARpjoitVVcCS-487" value="" style="line;strokeWidth=1;fillColor=none;align=left;verticalAlign=middle;spacingTop=-1;spacingLeft=3;spacingRight=3;rotatable=0;labelPosition=right;points=[];portConstraint=eastwest;strokeColor=inherit;" vertex="1" parent="HRkGqnotARpjoitVVcCS-485">
          <mxGeometry y="77" width="160" height="8" as="geometry" />
        </mxCell>
        <mxCell id="HRkGqnotARpjoitVVcCS-488" value="CheckAutorisation&lt;br&gt;SendError&lt;br&gt;StartAdminPanel" style="text;strokeColor=none;fillColor=none;align=left;verticalAlign=top;spacingLeft=4;spacingRight=4;overflow=hidden;rotatable=0;points=[[0,0.5],[1,0.5]];portConstraint=eastwest;whiteSpace=wrap;html=1;" vertex="1" parent="HRkGqnotARpjoitVVcCS-485">
          <mxGeometry y="85" width="160" height="53" as="geometry" />
        </mxCell>
        <mxCell id="HRkGqnotARpjoitVVcCS-499" style="edgeStyle=orthogonalEdgeStyle;rounded=0;orthogonalLoop=1;jettySize=auto;html=1;entryX=0.007;entryY=-0.232;entryDx=0;entryDy=0;entryPerimeter=0;" edge="1" parent="1" source="HRkGqnotARpjoitVVcCS-492" target="HRkGqnotARpjoitVVcCS-494">
          <mxGeometry relative="1" as="geometry" />
        </mxCell>
        <mxCell id="HRkGqnotARpjoitVVcCS-504" value="ConnectServer" style="swimlane;fontStyle=1;align=center;verticalAlign=top;childLayout=stackLayout;horizontal=1;startSize=26;horizontalStack=0;resizeParent=1;resizeParentMax=0;resizeLast=0;collapsible=1;marginBottom=0;whiteSpace=wrap;html=1;" vertex="1" parent="1">
          <mxGeometry x="-3876" y="2356" width="160" height="129" as="geometry" />
        </mxCell>
        <mxCell id="HRkGqnotARpjoitVVcCS-505" value="string: ServerName&lt;br&gt;string: ServerPath" style="text;strokeColor=none;fillColor=none;align=left;verticalAlign=top;spacingLeft=4;spacingRight=4;overflow=hidden;rotatable=0;points=[[0,0.5],[1,0.5]];portConstraint=eastwest;whiteSpace=wrap;html=1;" vertex="1" parent="HRkGqnotARpjoitVVcCS-504">
          <mxGeometry y="26" width="160" height="38" as="geometry" />
        </mxCell>
        <mxCell id="HRkGqnotARpjoitVVcCS-506" value="" style="line;strokeWidth=1;fillColor=none;align=left;verticalAlign=middle;spacingTop=-1;spacingLeft=3;spacingRight=3;rotatable=0;labelPosition=right;points=[];portConstraint=eastwest;strokeColor=inherit;" vertex="1" parent="HRkGqnotARpjoitVVcCS-504">
          <mxGeometry y="64" width="160" height="8" as="geometry" />
        </mxCell>
        <mxCell id="HRkGqnotARpjoitVVcCS-507" value="ConnectServer&lt;br&gt;SendError&lt;br&gt;UploadPortalInformation" style="text;strokeColor=none;fillColor=none;align=left;verticalAlign=top;spacingLeft=4;spacingRight=4;overflow=hidden;rotatable=0;points=[[0,0.5],[1,0.5]];portConstraint=eastwest;whiteSpace=wrap;html=1;" vertex="1" parent="HRkGqnotARpjoitVVcCS-504">
          <mxGeometry y="72" width="160" height="57" as="geometry" />
        </mxCell>
        <mxCell id="HRkGqnotARpjoitVVcCS-508" style="edgeStyle=orthogonalEdgeStyle;rounded=0;orthogonalLoop=1;jettySize=auto;html=1;" edge="1" parent="1" source="HRkGqnotARpjoitVVcCS-492" target="HRkGqnotARpjoitVVcCS-507">
          <mxGeometry relative="1" as="geometry">
            <Array as="points">
              <mxPoint x="-3931" y="2451" />
              <mxPoint x="-3931" y="2457" />
            </Array>
          </mxGeometry>
        </mxCell>
        <mxCell id="HRkGqnotARpjoitVVcCS-510" style="edgeStyle=orthogonalEdgeStyle;rounded=0;orthogonalLoop=1;jettySize=auto;html=1;entryX=1.013;entryY=0.769;entryDx=0;entryDy=0;entryPerimeter=0;" edge="1" parent="1" source="HRkGqnotARpjoitVVcCS-496" target="HRkGqnotARpjoitVVcCS-492">
          <mxGeometry relative="1" as="geometry">
            <Array as="points">
              <mxPoint x="-3937" y="2267" />
              <mxPoint x="-3937" y="2428" />
            </Array>
          </mxGeometry>
        </mxCell>
        <mxCell id="HRkGqnotARpjoitVVcCS-511" style="edgeStyle=orthogonalEdgeStyle;rounded=0;orthogonalLoop=1;jettySize=auto;html=1;entryX=1.013;entryY=0.968;entryDx=0;entryDy=0;entryPerimeter=0;" edge="1" parent="1" source="HRkGqnotARpjoitVVcCS-507" target="HRkGqnotARpjoitVVcCS-492">
          <mxGeometry relative="1" as="geometry">
            <Array as="points">
              <mxPoint x="-3913" y="2471" />
              <mxPoint x="-3913" y="2471" />
            </Array>
          </mxGeometry>
        </mxCell>
        <mxCell id="HRkGqnotARpjoitVVcCS-520" style="edgeStyle=orthogonalEdgeStyle;rounded=0;orthogonalLoop=1;jettySize=auto;html=1;" edge="1" parent="1" source="HRkGqnotARpjoitVVcCS-512">
          <mxGeometry relative="1" as="geometry">
            <mxPoint x="-4557" y="3159" as="targetPoint" />
          </mxGeometry>
        </mxCell>
        <mxCell id="HRkGqnotARpjoitVVcCS-512" value="" style="verticalLabelPosition=bottom;verticalAlign=top;html=1;shape=card;whiteSpace=wrap;size=20;arcSize=12;" vertex="1" parent="1">
          <mxGeometry x="-4320" y="3098.5" width="177" height="121" as="geometry" />
        </mxCell>
        <mxCell id="HRkGqnotARpjoitVVcCS-515" value="&lt;font style=&quot;font-size: 20px;&quot;&gt;Вход&lt;/font&gt;" style="text;html=1;align=center;verticalAlign=middle;resizable=0;points=[];autosize=1;strokeColor=none;fillColor=none;" vertex="1" parent="1">
          <mxGeometry x="-4914" y="3148" width="63" height="36" as="geometry" />
        </mxCell>
        <mxCell id="HRkGqnotARpjoitVVcCS-516" value="&lt;font style=&quot;font-size: 20px;&quot;&gt;С клавиатуры&lt;/font&gt;" style="text;html=1;align=center;verticalAlign=middle;resizable=0;points=[];autosize=1;strokeColor=none;fillColor=none;" vertex="1" parent="1">
          <mxGeometry x="-4723" y="3141" width="147" height="36" as="geometry" />
        </mxCell>
        <mxCell id="HRkGqnotARpjoitVVcCS-517" value="&lt;font style=&quot;font-size: 20px;&quot;&gt;Выход&lt;/font&gt;" style="text;html=1;align=center;verticalAlign=middle;resizable=0;points=[];autosize=1;strokeColor=none;fillColor=none;" vertex="1" parent="1">
          <mxGeometry x="-4967" y="3356" width="78" height="36" as="geometry" />
        </mxCell>
        <mxCell id="HRkGqnotARpjoitVVcCS-518" value="" style="strokeWidth=2;html=1;shape=mxgraph.flowchart.annotation_2;align=left;labelPosition=right;pointerEvents=1;" vertex="1" parent="1">
          <mxGeometry x="-5018" y="3151" width="50" height="255" as="geometry" />
        </mxCell>
        <mxCell id="HRkGqnotARpjoitVVcCS-519" value="&lt;font style=&quot;font-size: 20px;&quot;&gt;Учетные данные&lt;/font&gt;" style="text;html=1;align=center;verticalAlign=middle;resizable=0;points=[];autosize=1;strokeColor=none;fillColor=none;" vertex="1" parent="1">
          <mxGeometry x="-4786" y="3356" width="173" height="36" as="geometry" />
        </mxCell>
        <mxCell id="HRkGqnotARpjoitVVcCS-521" value="" style="strokeWidth=2;html=1;shape=mxgraph.flowchart.annotation_2;align=left;labelPosition=right;pointerEvents=1;" vertex="1" parent="1">
          <mxGeometry x="-5255" y="3169" width="50" height="725" as="geometry" />
        </mxCell>
        <mxCell id="HRkGqnotARpjoitVVcCS-522" value="&lt;font style=&quot;font-size: 20px;&quot;&gt;Портал &lt;br&gt;преподавателя &lt;br&gt;ИКТ&lt;/font&gt;" style="text;html=1;align=center;verticalAlign=middle;resizable=0;points=[];autosize=1;strokeColor=none;fillColor=none;" vertex="1" parent="1">
          <mxGeometry x="-5432" y="3435" width="158" height="84" as="geometry" />
        </mxCell>
        <mxCell id="HRkGqnotARpjoitVVcCS-523" value="&lt;span style=&quot;font-size: 20px;&quot;&gt;Ввод &lt;br&gt;данных&lt;/span&gt;" style="text;html=1;align=center;verticalAlign=middle;resizable=0;points=[];autosize=1;strokeColor=none;fillColor=none;" vertex="1" parent="1">
          <mxGeometry x="-5163" y="3207" width="87" height="60" as="geometry" />
        </mxCell>
        <mxCell id="HRkGqnotARpjoitVVcCS-524" value="" style="strokeWidth=2;html=1;shape=mxgraph.flowchart.annotation_2;align=left;labelPosition=right;pointerEvents=1;" vertex="1" parent="1">
          <mxGeometry x="-4829" y="3606" width="50" height="280" as="geometry" />
        </mxCell>
        <mxCell id="HRkGqnotARpjoitVVcCS-525" value="&lt;font style=&quot;font-size: 20px;&quot;&gt;Входные данные&lt;/font&gt;" style="text;html=1;align=center;verticalAlign=middle;resizable=0;points=[];autosize=1;strokeColor=none;fillColor=none;" vertex="1" parent="1">
          <mxGeometry x="-4799" y="3481" width="176" height="36" as="geometry" />
        </mxCell>
        <mxCell id="HRkGqnotARpjoitVVcCS-526" style="edgeStyle=orthogonalEdgeStyle;rounded=0;orthogonalLoop=1;jettySize=auto;html=1;exitX=1.017;exitY=0.389;exitDx=0;exitDy=0;exitPerimeter=0;entryX=1.008;entryY=0.574;entryDx=0;entryDy=0;entryPerimeter=0;" edge="1" parent="1" source="HRkGqnotARpjoitVVcCS-519" target="HRkGqnotARpjoitVVcCS-525">
          <mxGeometry relative="1" as="geometry">
            <mxPoint x="-4642" y="3639" as="targetPoint" />
            <mxPoint x="-4468" y="3639" as="sourcePoint" />
            <Array as="points">
              <mxPoint x="-4545" y="3370" />
              <mxPoint x="-4545" y="3502" />
            </Array>
          </mxGeometry>
        </mxCell>
        <mxCell id="HRkGqnotARpjoitVVcCS-527" value="&lt;font style=&quot;font-size: 20px;&quot;&gt;Вход&lt;/font&gt;" style="text;html=1;align=center;verticalAlign=middle;resizable=0;points=[];autosize=1;strokeColor=none;fillColor=none;" vertex="1" parent="1">
          <mxGeometry x="-4936.5" y="3501" width="63" height="36" as="geometry" />
        </mxCell>
        <mxCell id="HRkGqnotARpjoitVVcCS-528" value="" style="strokeWidth=2;html=1;shape=mxgraph.flowchart.annotation_2;align=left;labelPosition=right;pointerEvents=1;" vertex="1" parent="1">
          <mxGeometry x="-5017" y="3493" width="50" height="410" as="geometry" />
        </mxCell>
        <mxCell id="HRkGqnotARpjoitVVcCS-530" value="&lt;font style=&quot;font-size: 20px;&quot;&gt;Выход&lt;/font&gt;" style="text;html=1;align=center;verticalAlign=middle;resizable=0;points=[];autosize=1;strokeColor=none;fillColor=none;" vertex="1" parent="1">
          <mxGeometry x="-4970" y="3690" width="78" height="36" as="geometry" />
        </mxCell>
        <mxCell id="HRkGqnotARpjoitVVcCS-542" style="edgeStyle=orthogonalEdgeStyle;rounded=0;orthogonalLoop=1;jettySize=auto;html=1;" edge="1" parent="1">
          <mxGeometry relative="1" as="geometry">
            <mxPoint x="-4382" y="3618" as="targetPoint" />
            <mxPoint x="-4637" y="3618" as="sourcePoint" />
            <Array as="points">
              <mxPoint x="-4610" y="3618" />
              <mxPoint x="-4610" y="3618" />
            </Array>
          </mxGeometry>
        </mxCell>
        <mxCell id="HRkGqnotARpjoitVVcCS-531" value="&lt;font style=&quot;font-size: 20px;&quot;&gt;Отчет о&lt;br&gt;&amp;nbsp;некоректности&lt;/font&gt;" style="text;html=1;align=center;verticalAlign=middle;resizable=0;points=[];autosize=1;strokeColor=none;fillColor=none;" vertex="1" parent="1">
          <mxGeometry x="-4790.5" y="3610" width="159" height="60" as="geometry" />
        </mxCell>
        <mxCell id="HRkGqnotARpjoitVVcCS-532" style="edgeStyle=orthogonalEdgeStyle;rounded=0;orthogonalLoop=1;jettySize=auto;html=1;entryX=0;entryY=0.5;entryDx=0;entryDy=0;entryPerimeter=0;exitX=1.008;exitY=0.272;exitDx=0;exitDy=0;exitPerimeter=0;" edge="1" parent="1" source="HRkGqnotARpjoitVVcCS-531" target="HRkGqnotARpjoitVVcCS-535">
          <mxGeometry relative="1" as="geometry">
            <mxPoint x="-4342" y="3590" as="targetPoint" />
            <mxPoint x="-4510" y="3585" as="sourcePoint" />
            <Array as="points">
              <mxPoint x="-4630" y="3648" />
            </Array>
          </mxGeometry>
        </mxCell>
        <mxCell id="HRkGqnotARpjoitVVcCS-535" value="" style="strokeWidth=2;html=1;shape=mxgraph.flowchart.display;whiteSpace=wrap;" vertex="1" parent="1">
          <mxGeometry x="-4289" y="3584" width="199" height="127.5" as="geometry" />
        </mxCell>
        <mxCell id="HRkGqnotARpjoitVVcCS-539" value="" style="endArrow=none;html=1;rounded=0;" edge="1" parent="1">
          <mxGeometry width="50" height="50" relative="1" as="geometry">
            <mxPoint x="-4381.231630494427" y="3148.1102170334343" as="sourcePoint" />
            <mxPoint x="-4380" y="3157" as="targetPoint" />
          </mxGeometry>
        </mxCell>
        <mxCell id="HRkGqnotARpjoitVVcCS-541" value="" style="endArrow=none;html=1;rounded=0;" edge="1" parent="1" source="HRkGqnotARpjoitVVcCS-547">
          <mxGeometry width="50" height="50" relative="1" as="geometry">
            <mxPoint x="-4380" y="3988" as="sourcePoint" />
            <mxPoint x="-4379" y="3159" as="targetPoint" />
          </mxGeometry>
        </mxCell>
        <mxCell id="HRkGqnotARpjoitVVcCS-543" value="" style="ellipse;whiteSpace=wrap;html=1;fillColor=#000000;" vertex="1" parent="1">
          <mxGeometry x="-4384" y="3610" width="17" height="15" as="geometry" />
        </mxCell>
        <mxCell id="HRkGqnotARpjoitVVcCS-548" value="" style="endArrow=none;html=1;rounded=0;" edge="1" parent="1" target="HRkGqnotARpjoitVVcCS-547">
          <mxGeometry width="50" height="50" relative="1" as="geometry">
            <mxPoint x="-4380" y="3988" as="sourcePoint" />
            <mxPoint x="-4379" y="3159" as="targetPoint" />
          </mxGeometry>
        </mxCell>
        <mxCell id="HRkGqnotARpjoitVVcCS-547" value="" style="ellipse;whiteSpace=wrap;html=1;fillColor=#000000;" vertex="1" parent="1">
          <mxGeometry x="-4387.5" y="3151.5" width="17" height="15" as="geometry" />
        </mxCell>
        <mxCell id="HRkGqnotARpjoitVVcCS-550" value="&lt;font style=&quot;font-size: 20px;&quot;&gt;Проверенные&lt;br&gt;Данные&lt;/font&gt;" style="text;html=1;align=center;verticalAlign=middle;resizable=0;points=[];autosize=1;strokeColor=none;fillColor=none;" vertex="1" parent="1">
          <mxGeometry x="-4762" y="3775" width="146" height="60" as="geometry" />
        </mxCell>
        <mxCell id="HRkGqnotARpjoitVVcCS-552" value="&lt;span style=&quot;font-size: 20px;&quot;&gt;Авторизация&lt;br&gt;&lt;/span&gt;" style="text;html=1;align=center;verticalAlign=middle;resizable=0;points=[];autosize=1;strokeColor=none;fillColor=none;" vertex="1" parent="1">
          <mxGeometry x="-5167" y="3680" width="138" height="36" as="geometry" />
        </mxCell>
        <mxCell id="HRkGqnotARpjoitVVcCS-555" style="edgeStyle=orthogonalEdgeStyle;rounded=0;orthogonalLoop=1;jettySize=auto;html=1;exitX=0;exitY=0.85;exitDx=0;exitDy=0;exitPerimeter=0;" edge="1" parent="1" source="HRkGqnotARpjoitVVcCS-553">
          <mxGeometry relative="1" as="geometry">
            <mxPoint x="-4625" y="3548.333333333334" as="targetPoint" />
          </mxGeometry>
        </mxCell>
        <mxCell id="HRkGqnotARpjoitVVcCS-553" value="" style="strokeWidth=2;html=1;shape=mxgraph.flowchart.database;whiteSpace=wrap;" vertex="1" parent="1">
          <mxGeometry x="-4280" y="3428.25" width="172" height="141.5" as="geometry" />
        </mxCell>
        <mxCell id="HRkGqnotARpjoitVVcCS-554" value="&lt;span style=&quot;font-size: 20px;&quot;&gt;Данные из БД&lt;/span&gt;" style="text;html=1;align=center;verticalAlign=middle;resizable=0;points=[];autosize=1;strokeColor=none;fillColor=none;" vertex="1" parent="1">
          <mxGeometry x="-4799" y="3524" width="148" height="36" as="geometry" />
        </mxCell>
      </root>
    </mxGraphModel>
  </diagram>
</mxfile>
